<?xml version="1.0" encoding="utf-8"?>
<!-- Generator: Adobe Illustrator 19.0.0, SVG Export Plug-In . SVG Version: 6.00 Build 0)  -->
<svg version="1.1" id="Layer_1" xmlns="http://www.w3.org/2000/svg" xmlns:xlink="http://www.w3.org/1999/xlink" x="0px" y="0px"
	 viewBox="0 0 101.5 64" style="enable-background:new 0 0 101.5 64;" xml:space="preserve">
<style type="text/css">
	.st0{fill:#4B4A4B;}
</style>
<g>
	<path class="st0" d="M2.5,19.2l42.4,42.4c1.7,1.6,3.7,2.4,5.9,2.4c2.3,0,4.3-0.8,5.9-2.4l42.4-42.4c1.7-1.7,2.5-3.6,2.5-5.9
		c0-2.3-0.8-4.3-2.5-5.9l-4.9-4.9C92.6,0.8,90.7,0,88.3,0C86,0,84,0.8,82.4,2.5L50.8,34.1L19.1,2.5C17.5,0.8,15.6,0,13.2,0
		c-2.3,0-4.3,0.8-5.9,2.5L2.4,7.4C0.8,9,0,10.9,0,13.2C0,15.5,0.8,17.5,2.5,19.2L2.5,19.2z M2.5,19.2"/>
</g>
</svg>
