<?xml version="1.0" encoding="utf-8"?>
<!-- Generator: Adobe Illustrator 19.0.0, SVG Export Plug-In . SVG Version: 6.00 Build 0)  -->
<svg version="1.1" id="Layer_1" xmlns="http://www.w3.org/2000/svg" xmlns:xlink="http://www.w3.org/1999/xlink" x="0px" y="0px"
	 viewBox="-254 365 101.5 64" style="enable-background:new -254 365 101.5 64;" xml:space="preserve">
<style type="text/css">
	.st0{fill:#FFFFFF;}
</style>
<g>
	<path class="st0" d="M-251.5,384.2l42.4,42.4c1.7,1.6,3.7,2.4,5.9,2.4c2.3,0,4.3-0.8,5.9-2.4l42.4-42.4c1.7-1.7,2.5-3.6,2.5-5.9
		c0-2.3-0.8-4.3-2.5-5.9l-4.9-4.9c-1.6-1.7-3.5-2.5-5.9-2.5c-2.3,0-4.3,0.8-5.9,2.5l-31.6,31.6l-31.7-31.6c-1.6-1.7-3.5-2.5-5.9-2.5
		c-2.3,0-4.3,0.8-5.9,2.5l-4.9,4.9c-1.6,1.6-2.4,3.5-2.4,5.8C-254,380.5-253.2,382.5-251.5,384.2L-251.5,384.2z"/>
</g>
</svg>
