<?xml version="1.0" encoding="utf-8"?>
<!-- Generator: Adobe Illustrator 19.0.0, SVG Export Plug-In . SVG Version: 6.00 Build 0)  -->
<svg version="1.1" id="Layer_1" xmlns="http://www.w3.org/2000/svg" xmlns:xlink="http://www.w3.org/1999/xlink" x="0px" y="0px"
	 viewBox="0 0 26.1 20.9" style="enable-background:new 0 0 26.1 20.9;" xml:space="preserve">
<style type="text/css">
	.st0{clip-path:url(#SVGID_2_);fill:#22B34F;}
</style>
<g>
	<g>
		<defs>
			<rect id="SVGID_1_" y="0" width="26.9" height="21.8"/>
		</defs>
		<clipPath id="SVGID_2_">
			<use xlink:href="#SVGID_1_"  style="overflow:visible;"/>
		</clipPath>
		<path class="st0" d="M25.7,10.8H0.4c-0.2,0-0.4-0.2-0.4-0.4C0,10.2,0.2,10,0.4,10h25.3c0.2,0,0.4,0.2,0.4,0.4
			C26.1,10.7,25.9,10.8,25.7,10.8L25.7,10.8z M25.7,10.8"/>
		<path class="st0" d="M10.4,20.9c-0.1,0-0.2,0-0.3-0.1l-10-10C0,10.6,0,10.5,0,10.4c0-0.1,0-0.2,0.1-0.3l10-10
			c0.2-0.2,0.4-0.2,0.6,0c0.2,0.2,0.2,0.4,0,0.6L1,10.4l9.7,9.7c0.2,0.2,0.2,0.4,0,0.6C10.6,20.8,10.5,20.9,10.4,20.9L10.4,20.9z
			 M10.4,20.9"/>
	</g>
</g>
</svg>
