<?xml version="1.0" encoding="utf-8"?>
<!-- Generator: Adobe Illustrator 19.0.0, SVG Export Plug-In . SVG Version: 6.00 Build 0)  -->
<svg version="1.1" id="Layer_1" xmlns="http://www.w3.org/2000/svg" xmlns:xlink="http://www.w3.org/1999/xlink" x="0px" y="0px"
	 viewBox="0 0 101.5 64" style="enable-background:new 0 0 101.5 64;" xml:space="preserve">
<style type="text/css">
	.st0{fill:#22B34F;}
</style>
<g>
	<path class="st0" d="M99.1,44.8L56.7,2.4C55,0.8,53,0,50.8,0c-2.3,0-4.3,0.8-5.9,2.4L2.5,44.8C0.8,46.5,0,48.5,0,50.8
		c0,2.3,0.8,4.3,2.5,5.9l4.9,4.9c1.6,1.7,3.5,2.5,5.9,2.5c2.3,0,4.3-0.8,5.9-2.5l31.7-31.6l31.7,31.6C84,63.2,86,64,88.3,64
		c2.3,0,4.3-0.8,5.9-2.5l4.9-4.9c1.6-1.6,2.4-3.6,2.4-5.9C101.5,48.5,100.7,46.5,99.1,44.8L99.1,44.8z M99.1,44.8"/>
</g>
</svg>
