<?xml version="1.0" encoding="utf-8"?>
<!-- Generator: Adobe Illustrator 19.0.0, SVG Export Plug-In . SVG Version: 6.00 Build 0)  -->
<svg version="1.1" id="Layer_1" xmlns="http://www.w3.org/2000/svg" xmlns:xlink="http://www.w3.org/1999/xlink" x="0px" y="0px"
	 viewBox="0 0 240 240" style="enable-background:new 0 0 240 240;" xml:space="preserve">
<style type="text/css">
	.st0{fill:#4A4A4A;}
</style>
<g>
	<g>
		<path class="st0" d="M120,0C53.7,0,0,53.7,0,120c0,66.3,53.7,120,120,120c66.3,0,120-53.7,120-120C240,53.7,186.3,0,120,0L120,0z
			 M165.3,165.7c-4.8,4.8-12.6,4.8-17.3,0l-27.3-27.3L92.1,167c-4.8,4.8-12.6,4.8-17.3,0c-4.8-4.8-4.8-12.6,0-17.3l28.5-28.5
			L76.7,94.5c-4.8-4.8-4.8-12.6,0-17.3c4.8-4.8,12.6-4.8,17.3,0l26.6,26.6L146,78.4c4.8-4.8,12.6-4.8,17.3,0
			c4.8,4.8,4.8,12.6,0,17.3L138,121.1l27.3,27.3C170.1,153.2,170.1,160.9,165.3,165.7L165.3,165.7z M165.3,165.7"/>
	</g>
</g>
</svg>
