<?xml version="1.0" encoding="utf-8"?>
<!-- Generator: Adobe Illustrator 19.0.0, SVG Export Plug-In . SVG Version: 6.00 Build 0)  -->
<svg version="1.1" id="Layer_1" xmlns="http://www.w3.org/2000/svg" xmlns:xlink="http://www.w3.org/1999/xlink" x="0px" y="0px"
	 viewBox="-284 376.4 41.6 41.6" style="enable-background:new -284 376.4 41.6 41.6;" xml:space="preserve">
<style type="text/css">
	.st0{fill:#939393;}
</style>
<g>
	<path class="st0" d="M-263.2,376.4c-11.5,0-20.8,9.3-20.8,20.8s9.3,20.8,20.8,20.8c11.5,0,20.8-9.3,20.8-20.8
		S-251.7,376.4-263.2,376.4L-263.2,376.4z M-263.2,416.4c-10.6,0-19.2-8.6-19.2-19.2c0-10.6,8.6-19.2,19.2-19.2
		c10.6,0,19.2,8.6,19.2,19.2C-244,407.8-252.6,416.4-263.2,416.4L-263.2,416.4z"/>
	<path class="st0" d="M-255.4,389.4c-0.3-0.3-0.8-0.3-1.1,0l-6.6,6.6l-6.7-6.6c-0.3-0.3-0.8-0.3-1.1,0c-0.3,0.3-0.3,0.8,0,1.1
		l6.6,6.6l-6.7,6.7c-0.3,0.3-0.3,0.8,0,1.1c0.2,0.2,0.4,0.2,0.6,0.2c0.2,0,0.4-0.1,0.6-0.2l6.6-6.6l6.6,6.6c0.2,0.2,0.4,0.2,0.6,0.2
		c0.2,0,0.4-0.1,0.6-0.2c0.3-0.3,0.3-0.8,0-1.1l-6.6-6.6l6.6-6.6C-255.1,390.2-255.1,389.7-255.4,389.4L-255.4,389.4z"/>
</g>
</svg>
