<?xml version="1.0" encoding="utf-8"?>
<!-- Generator: Adobe Illustrator 19.0.0, SVG Export Plug-In . SVG Version: 6.00 Build 0)  -->
<svg version="1.1" id="Layer_1" xmlns="http://www.w3.org/2000/svg" xmlns:xlink="http://www.w3.org/1999/xlink" x="0px" y="0px"
	 viewBox="0 0 41.6 41.6" style="enable-background:new 0 0 41.6 41.6;" xml:space="preserve">
<style type="text/css">
	.st0{fill:#939393;}
</style>
<path class="st0" d="M20.8,0C9.3,0,0,9.3,0,20.8s9.3,20.8,20.8,20.8c11.5,0,20.8-9.3,20.8-20.8S32.3,0,20.8,0L20.8,0z M20.8,40
	C10.2,40,1.6,31.4,1.6,20.8c0-10.6,8.6-19.2,19.2-19.2C31.4,1.6,40,10.2,40,20.8C40,31.4,31.4,40,20.8,40L20.8,40z M20.8,40"/>
<path class="st0" d="M31.8,20.8c0-0.4-0.4-0.8-0.8-0.8H10.6c-0.4,0-0.8,0.4-0.8,0.8c0,0.2,0.1,0.4,0.2,0.6c0.1,0.1,0.3,0.2,0.6,0.2
	l20.4,0C31.4,21.6,31.8,21.2,31.8,20.8L31.8,20.8z M28.6,13"/>
</svg>
