<?xml version="1.0" encoding="utf-8"?>
<!-- Generator: Adobe Illustrator 19.0.0, SVG Export Plug-In . SVG Version: 6.00 Build 0)  -->
<svg version="1.1" id="Layer_1" xmlns="http://www.w3.org/2000/svg" xmlns:xlink="http://www.w3.org/1999/xlink" x="0px" y="0px"
	 viewBox="0 0 46.4 36.8" style="enable-background:new 0 0 46.4 36.8;" xml:space="preserve">
<style type="text/css">
	.st0{fill:#DFDFDF;}
</style>
<g>
	<path class="st0" d="M45.6,0H0.8C0.4,0,0,0.4,0,0.8V36c0,0.4,0.4,0.8,0.8,0.8h44.8c0.4,0,0.8-0.4,0.8-0.8V0.8C46.4,0.4,46,0,45.6,0
		L45.6,0z M8,35.2H1.6V28H8V35.2z M8,26.4H1.6v-7.2H8V26.4z M8,17.6H1.6v-7.2H8V17.6z M8,8.8H1.6V1.6H8V8.8z M29.2,19.1l-8.8,5.6
		c-0.1,0.1-0.3,0.1-0.4,0.1c-0.1,0-0.3,0-0.4-0.1c-0.3-0.1-0.4-0.4-0.4-0.7V12.8c0-0.3,0.2-0.6,0.4-0.7c0.3-0.1,0.6-0.1,0.8,0
		l8.8,5.6c0.2,0.1,0.4,0.4,0.4,0.7C29.6,18.7,29.5,18.9,29.2,19.1L29.2,19.1z M44.8,35.2h-6.4V28h6.4V35.2z M44.8,26.4h-6.4v-7.2
		h6.4V26.4z M44.8,17.6h-6.4v-7.2h6.4V17.6z M44.8,8.8h-6.4V1.6h6.4V8.8z M44.8,8.8"/>
</g>
</svg>
