<?xml version="1.0" encoding="utf-8"?>
<!-- Generator: Adobe Illustrator 19.0.0, SVG Export Plug-In . SVG Version: 6.00 Build 0)  -->
<svg version="1.1" id="Layer_1" xmlns="http://www.w3.org/2000/svg" xmlns:xlink="http://www.w3.org/1999/xlink" x="0px" y="0px"
	 viewBox="0 0 344 204.6" style="enable-background:new 0 0 344 204.6;" xml:space="preserve">
<style type="text/css">
	.st0{fill:#9E9E9E;}
</style>
<g>
	<g>
		<path class="st0" d="M344,95.3C335.2,80.3,283.1,0,172,0S8.8,80.3,0,95.3c33.5-32.6,89.4-68.9,172-68.9S310.5,62.7,344,95.3
			L344,95.3z M344,95.3"/>
		<path class="st0" d="M0,109.4c8.8,15,60.9,95.3,172,95.3s163.2-80.3,172-95.3c-33.5,32.6-89.4,68.9-172,68.9S33.5,141.9,0,109.4
			L0,109.4z M0,109.4"/>
	</g>
	<path class="st0" d="M131.3,141.1c22,22,57.6,22,79.5,0c22-22,22-57.6,0-79.5c-17.7-17.7-44.2-21.1-65.3-10.3l12.9,37.4l-37.4-12.9
		C110.1,96.9,113.6,123.4,131.3,141.1L131.3,141.1z M131.3,141.1"/>
</g>
</svg>
