<?xml version="1.0" encoding="utf-8"?>
<!-- Generator: Adobe Illustrator 20.1.0, SVG Export Plug-In . SVG Version: 6.00 Build 0)  -->
<svg version="1.1" id="Layer_1" xmlns="http://www.w3.org/2000/svg" xmlns:xlink="http://www.w3.org/1999/xlink" x="0px" y="0px"
	 viewBox="0 0 236.8 236.8" style="enable-background:new 0 0 236.8 236.8;" xml:space="preserve">
<style type="text/css">
	.st0{fill:#FFFFFF;}
</style>
<g>
	<path class="st0" d="M118.4,0C53.1,0,0,53.1,0,118.4c0,65.3,53.1,118.4,118.4,118.4c65.3,0,118.4-53.1,118.4-118.4
		C236.8,53.1,183.7,0,118.4,0L118.4,0z M118.4,224c-29,0-55.3-11.8-74.4-30.8c-7.6-7.6-14.1-16.3-19.1-25.9
		c-7.7-14.6-12-31.3-12-48.9c0-58.2,47.4-105.6,105.6-105.6c27.6,0,52.8,10.7,71.6,28.1c9.8,9,17.8,19.9,23.6,32
		c6.6,13.8,10.3,29.2,10.3,45.5C224,176.6,176.6,224,118.4,224L118.4,224z M118.4,224"/>
	<path class="st0" d="M130.9,150.1c14,2.9,26.7,10.8,35.5,22.2l10.1-7.9c-10.7-13.8-26-23.3-43-26.9c-27.4-5.7-56.1,4.8-73.3,26.9
		l10.1,7.9C84.5,154.1,108.3,145.4,130.9,150.1L130.9,150.1z M130.9,150.1"/>
	<path class="st0" d="M91.7,92c0,7.1-5.7,12.8-12.8,12.8c-7.1,0-12.8-5.7-12.8-12.8c0-7.1,5.7-12.8,12.8-12.8
		C86,79.2,91.7,84.9,91.7,92L91.7,92z M91.7,92"/>
	<path class="st0" d="M170.9,92c0,7.1-5.7,12.8-12.8,12.8c-7.1,0-12.8-5.7-12.8-12.8c0-7.1,5.7-12.8,12.8-12.8
		C165.2,79.2,170.9,84.9,170.9,92L170.9,92z M170.9,92"/>
</g>
</svg>
