<?xml version="1.0" encoding="utf-8"?>
<!-- Generator: Adobe Illustrator 19.0.0, SVG Export Plug-In . SVG Version: 6.00 Build 0)  -->
<svg version="1.1" id="Layer_1" xmlns="http://www.w3.org/2000/svg" xmlns:xlink="http://www.w3.org/1999/xlink" x="0px" y="0px"
	 viewBox="-293 384.3 24.7 24.7" style="enable-background:new -293 384.3 24.7 24.7;" xml:space="preserve">
<style type="text/css">
	.st0{fill:#9D9D9D;}
</style>
<path class="st0" d="M-273.5,384.3h-14.3c-2.9,0-5.2,2.3-5.2,5.2v14.3c0,2.9,2.3,5.2,5.2,5.2h14.3c2.9,0,5.2-2.3,5.2-5.2v-2.4v-0.5
	v-8.5v-1.3v-1.6C-268.4,386.6-270.7,384.3-273.5,384.3z M-270.1,392.4v8.5l0,0v2.9c0,1.9-1.5,3.5-3.4,3.5h-14.3
	c-1.9,0-3.4-1.5-3.4-3.5v-14.3c0-1.9,1.5-3.5,3.4-3.5h14.3c1.9,0,3.4,1.5,3.4,3.5v1.6V392.4z"/>
<g>
	<path class="st0" d="M-273,398l-7.7-6l-7.7,6v-2.4l7.7-6l7.7,6V398z M-274.9,397.8v5.8h-3.8v-3.8h-3.8v3.8h-3.9v-5.8l5.8-4.3
		L-274.9,397.8z"/>
</g>
</svg>
