<?xml version="1.0" encoding="utf-8"?>
<!-- Generator: Adobe Illustrator 19.2.1, SVG Export Plug-In . SVG Version: 6.00 Build 0)  -->
<svg version="1.1" id="Layer_1" xmlns="http://www.w3.org/2000/svg" xmlns:xlink="http://www.w3.org/1999/xlink" x="0px" y="0px"
	 viewBox="0 0 391.3 391.4" style="enable-background:new 0 0 391.3 391.4;" xml:space="preserve">
<style type="text/css">
	.st0{fill:#9E9E9E;}
</style>
<path class="st0" d="M309.1,0h-227C36.8,0,0,36.9,0,82.2v227c0,45.4,36.9,82.2,82.2,82.2h227c45.4,0,82.2-36.9,82.2-82.2V271v-8.4
	V128.3v-20.8V82.2C391.3,36.9,354.4,0,309.1,0z M363.8,128.3v134.2l0,0v46.6c0,30.2-24.6,54.8-54.7,54.8h-227
	c-30.2,0-54.7-24.6-54.7-54.8v-227c0-30.2,24.6-54.8,54.7-54.8h227c30.2,0,54.7,24.6,54.7,54.8v25.3V128.3z"/>
<g>
	<path class="st0" d="M77.4,257.1v59.5h59.5l138.9-138.9l-59.5-59.5L77.4,257.1z M128.7,296.8h-11.6V277H97.3v-11.6l24-24l31.4,31.4
		L128.7,296.8z M219.4,154.8l-72.3,72.3c-2.3,2.4-4.6,2.4-6.8,0.2c-2.2-2.2-2.1-4.5,0.2-6.8l72.3-72.3c2.3-2.3,4.6-2.4,6.8-0.2
		C221.8,150.2,221.8,152.5,219.4,154.8z"/>
	<path class="st0" d="M308.1,117.4L276.7,86c-3.9-3.9-8.5-5.8-14.1-5.8c-5.5,0-10.2,1.9-14,5.8l-19,19l59.5,59.5l19-19
		c3.9-3.8,5.8-8.5,5.8-14C313.9,125.9,311.9,121.3,308.1,117.4z"/>
</g>
</svg>
