<?xml version="1.0" encoding="utf-8"?>
<!-- Generator: Adobe Illustrator 19.2.1, SVG Export Plug-In . SVG Version: 6.00 Build 0)  -->
<svg version="1.1" id="Layer_1" xmlns="http://www.w3.org/2000/svg" xmlns:xlink="http://www.w3.org/1999/xlink" x="0px" y="0px"
	 viewBox="0 0 17.6 17.6" style="enable-background:new 0 0 17.6 17.6;" xml:space="preserve">
<style type="text/css">
	.st0{fill-rule:evenodd;clip-rule:evenodd;fill:#CFCECE;}
</style>
<g>
	<path class="st0" d="M17.6,8.8c0-4.9-3.9-8.8-8.8-8.8C3.9,0,0,3.9,0,8.8c0,4.9,3.9,8.8,8.8,8.8C13.7,17.6,17.6,13.7,17.6,8.8
		L17.6,8.8z M4.1,11.9c0.2,0,0.3,0,0.5,0c0.9,0,1.7-0.3,2.4-0.9c-0.9,0-1.6-0.6-1.8-1.4c0.1,0,0.2,0,0.4,0c0.2,0,0.4,0,0.5-0.1
		c-0.9-0.2-1.6-1-1.6-2v0C4.7,7.7,5,7.8,5.3,7.8c-0.5-0.4-0.9-1-0.9-1.7c0-0.4,0.1-0.7,0.3-1c1,1.3,2.4,2.1,4,2.2c0-0.2,0-0.3,0-0.5
		c0-1.1,0.9-2,1.9-2c0.6,0,1.1,0.3,1.4,0.7c0.4-0.1,0.9-0.2,1.2-0.5c-0.1,0.5-0.5,0.9-0.9,1.1c0.4,0,0.8-0.1,1.1-0.3
		c-0.3,0.4-0.6,0.8-1,1c0,0.1,0,0.2,0,0.3c0,2.7-2,5.8-5.5,5.8C5.9,12.9,4.9,12.5,4.1,11.9L4.1,11.9z M4.1,11.9"/>
</g>
</svg>
