<?xml version="1.0" encoding="utf-8"?>
<!-- Generator: Adobe Illustrator 19.2.1, SVG Export Plug-In . SVG Version: 6.00 Build 0)  -->
<svg version="1.1" id="Layer_1" xmlns="http://www.w3.org/2000/svg" xmlns:xlink="http://www.w3.org/1999/xlink" x="0px" y="0px"
	 viewBox="0 0 392 392" style="enable-background:new 0 0 392 392;" xml:space="preserve">
<style type="text/css">
	.st0{fill:#9D9D9D;}
</style>
<g>
	<g>
		<path class="st0" d="M387.2,364.2L293,269.9c23.4-28.5,37.4-65,37.4-104.7C330.4,74,256.4,0,165.2,0C73.9,0,0,74,0,165.2
			s73.9,165.2,165.2,165.2c39.8,0,76.2-14,104.6-37.4l94.2,94.2c6.4,6.4,16.7,6.4,23.1,0C393.6,380.9,393.6,370.5,387.2,364.2
			L387.2,364.2z M165.2,297.5c-73,0-132.4-59.4-132.4-132.3S92.2,32.8,165.2,32.8c73,0,132.4,59.4,132.4,132.4
			S238.2,297.5,165.2,297.5L165.2,297.5z M165.2,297.5"/>
	</g>
</g>
</svg>
