<?xml version="1.0" encoding="utf-8"?>
<!-- Generator: Adobe Illustrator 19.0.0, SVG Export Plug-In . SVG Version: 6.00 Build 0)  -->
<svg version="1.1" id="Layer_1" xmlns="http://www.w3.org/2000/svg" xmlns:xlink="http://www.w3.org/1999/xlink" x="0px" y="0px"
	 viewBox="-109 280.9 391.1 233.1" style="enable-background:new -109 280.9 391.1 233.1;" xml:space="preserve">
<style type="text/css">
	.st0{fill:#04B74F;}
</style>
<g>
	<g>
		<path class="st0" d="M86.5,280.9c-74.7,0-142.4,40.9-192.4,107.3c-4.1,5.4-4.1,13,0,18.5c50,66.5,117.8,107.4,192.5,107.4
			s142.5-40.9,192.5-107.3c4.1-5.4,4.1-13,0-18.5C229,321.8,161.3,280.9,86.5,280.9L86.5,280.9z M91.9,479.5
			c-49.6,3.1-90.6-37.8-87.4-87.4c2.6-41,35.8-74.2,76.7-76.7c49.6-3.1,90.6,37.8,87.4,87.4C166,443.7,132.8,476.9,91.9,479.5
			L91.9,479.5z M89.4,441.6c-26.7,1.7-48.8-20.3-47-47c1.4-22.1,19.3-39.9,41.4-41.4c26.7-1.7,48.8,20.3,47,47
			C129.3,422.4,111.4,440.3,89.4,441.6L89.4,441.6z"/>
	</g>
</g>
</svg>
