<?xml version="1.0" encoding="utf-8"?>
<!-- Generator: Adobe Illustrator 19.0.0, SVG Export Plug-In . SVG Version: 6.00 Build 0)  -->
<svg version="1.1" id="Layer_1" xmlns="http://www.w3.org/2000/svg" xmlns:xlink="http://www.w3.org/1999/xlink" x="0px" y="0px"
	 viewBox="0 0 311.3 390.2" style="enable-background:new 0 0 311.3 390.2;" xml:space="preserve">
<style type="text/css">
	.st0{fill:#9E9E9E;}
</style>
<g>
	<g>
		<path class="st0" d="M150.1,0.1C72.6,2.8,8.2,63.3,0.7,140.5c-1.5,15.4-0.6,30.4,2.1,44.7c0,0,0.2,1.7,1,4.9
			c2.4,10.7,6,21.1,10.5,30.9c15.6,37,51.7,98.8,132.6,166.1c5,4.2,12.2,4.2,17.3,0c81-67.2,117-129,132.7-166.2
			c4.6-9.8,8.1-20.1,10.5-30.9c0.7-3.1,1-4.9,1-4.9c1.8-9.6,2.8-19.4,2.8-29.5C311.3,67.8,238.6-3,150.1,0.1L150.1,0.1z
			 M155.6,233.1c-41.8,0-75.6-33.8-75.6-75.6c0-41.8,33.8-75.6,75.6-75.6c41.8,0,75.6,33.8,75.6,75.6
			C231.2,199.2,197.4,233.1,155.6,233.1L155.6,233.1z M155.6,233.1"/>
	</g>
</g>
</svg>
