<?xml version="1.0" encoding="utf-8"?>
<!-- Generator: Adobe Illustrator 19.0.0, SVG Export Plug-In . SVG Version: 6.00 Build 0)  -->
<svg version="1.1" id="Layer_1" xmlns="http://www.w3.org/2000/svg" xmlns:xlink="http://www.w3.org/1999/xlink" x="0px" y="0px"
	 viewBox="0 0 391.3 391.4" style="enable-background:new 0 0 391.3 391.4;" xml:space="preserve">
<style type="text/css">
	.st0{fill:#9E9E9E;}
</style>
<path class="st0" d="M309,0H82C36.7,0-0.1,36.9-0.1,82.2v227c0,45.4,36.9,82.2,82.2,82.2h227c45.4,0,82.2-36.9,82.2-82.2V271v-8.4
	V128.3v-20.8V82.2C391.2,36.9,354.3,0,309,0z M363.7,128.3v134.2l0,0v46.6c0,30.2-24.6,54.8-54.7,54.8H82
	c-30.2,0-54.7-24.6-54.7-54.8v-227c0-30.2,24.6-54.8,54.7-54.8h227c30.2,0,54.7,24.6,54.7,54.8v25.3V128.3z"/>
<g>
	<g>
		<g>
			<path class="st0" d="M310.2,198.2c-1.3,0-2.6-0.4-3.7-1.3l-110.8-89.6L84.8,196.9c-2.5,2-6.2,1.7-8.3-0.9c-2-2.5-1.7-6.2,0.9-8.3
				l114.5-92.6c2.2-1.7,5.2-1.7,7.4,0l114.5,92.6c2.5,2,2.9,5.8,0.9,8.3C313.6,197.5,311.9,198.2,310.2,198.2z"/>
		</g>
		<g>
			<path class="st0" d="M272.3,297.6H119c-1.6,0-2.9-1.3-2.9-2.9v-98.1c0-0.9,0.4-1.7,1.1-2.3l76.7-62.8c1.1-0.9,2.6-0.9,3.7,0
				l76.5,62.6c0.7,0.6,1.1,1.4,1.1,2.3v98.2C275.2,296.2,273.9,297.6,272.3,297.6z M122,291.7h147.3v-93.9l-73.6-60.2L122,197.9
				V291.7z"/>
		</g>
	</g>
	<path class="st0" d="M269.7,197.5v-3.2l-72.9-58.7l-1.7-1.7l-75.4,60.7v4.5c-0.3,0.4-0.5,0.9-0.5,1.4v92.1c0,2.4,3.9,4.3,8.8,4.3
		h135.5c4.9,0,8.8-1.9,8.8-4.3v-92.1C272.2,199.3,271.2,198.3,269.7,197.5z"/>
</g>
</svg>
