<?xml version="1.0" encoding="utf-8"?>
<!-- Generator: Adobe Illustrator 19.2.1, SVG Export Plug-In . SVG Version: 6.00 Build 0)  -->
<svg version="1.1" id="Layer_1" xmlns="http://www.w3.org/2000/svg" xmlns:xlink="http://www.w3.org/1999/xlink" x="0px" y="0px"
	 viewBox="0 0 391.3 391.4" style="enable-background:new 0 0 391.3 391.4;" xml:space="preserve">
<style type="text/css">
	.st0{fill:#9B9B9B;}
</style>
<path class="st0" d="M309.1,0h-227C36.8,0,0,36.9,0,82.2v227c0,45.4,36.9,82.2,82.2,82.2h227c45.4,0,82.2-36.9,82.2-82.2V271v-8.4
	V128.3v-20.8V82.2C391.3,36.9,354.4,0,309.1,0z M363.8,128.3v134.2l0,0v46.6c0,30.2-24.6,54.8-54.7,54.8h-227
	c-30.2,0-54.7-24.6-54.7-54.8v-227c0-30.2,24.6-54.8,54.7-54.8h227c30.2,0,54.7,24.6,54.7,54.8v25.3V128.3z"/>
<g>
	<path class="st0" d="M161.7,123.1h131.7c3.1,0,5.6-2.5,5.6-5.6c0-3.1-2.5-5.6-5.6-5.6H161.7c-3.1,0-5.6,2.5-5.6,5.6
		C156.1,120.6,158.6,123.1,161.7,123.1z"/>
	<path class="st0" d="M293.4,195.7H161.7c-3.1,0-5.6,2.5-5.6,5.6c0,3.1,2.5,5.6,5.6,5.6h131.7c3.1,0,5.6-2.5,5.6-5.6
		C299,198.2,296.5,195.7,293.4,195.7z"/>
	<path class="st0" d="M293.4,279.5H161.7c-3.1,0-5.6,2.5-5.6,5.6c0,3.1,2.5,5.6,5.6,5.6h131.7c3.1,0,5.6-2.5,5.6-5.6
		C299,282,296.5,279.5,293.4,279.5z"/>
	<polygon class="st0" points="114.2,89.6 107.5,103.3 92.3,105.5 103.3,116.2 100.7,131.3 114.2,124.2 127.8,131.3 125.2,116.2 
		136.2,105.5 121,103.3 	"/>
	<polygon class="st0" points="114.2,173.8 107.5,187.6 92.3,189.8 103.3,200.5 100.7,215.6 114.2,208.5 127.8,215.6 125.2,200.5 
		136.2,189.8 121,187.6 	"/>
	<polygon class="st0" points="121,273.8 114.2,260.1 107.5,273.8 92.3,276 103.3,286.7 100.7,301.8 114.2,294.7 127.8,301.8 
		125.2,286.7 136.2,276 	"/>
</g>
</svg>
