<?xml version="1.0" encoding="utf-8"?>
<!-- Generator: Adobe Illustrator 19.0.0, SVG Export Plug-In . SVG Version: 6.00 Build 0)  -->
<svg version="1.1" id="Layer_1" xmlns="http://www.w3.org/2000/svg" xmlns:xlink="http://www.w3.org/1999/xlink" x="0px" y="0px"
	 viewBox="0 0 391.3 391.4" style="enable-background:new 0 0 391.3 391.4;" xml:space="preserve">
<style type="text/css">
	.st0{fill:#9E9E9E;}
</style>
<path class="st0" d="M309.1,0h-227C36.8,0,0,36.9,0,82.2v227c0,45.4,36.9,82.2,82.2,82.2h227c45.4,0,82.2-36.9,82.2-82.2V271v-8.4
	V128.3v-20.8V82.2C391.3,36.9,354.4,0,309.1,0z M363.8,128.3v134.2l0,0v46.6c0,30.2-24.6,54.8-54.7,54.8h-227
	c-30.2,0-54.7-24.6-54.7-54.8v-227c0-30.2,24.6-54.8,54.7-54.8h227c30.2,0,54.7,24.6,54.7,54.8v25.3V128.3z"/>
<g>
	<path class="st0" d="M270.7,171.2l-1-0.3l-3.8-9.1l0.4-0.9c11.5-26.1,10.7-26.9,8.8-28.7l-15.3-15c-0.6-0.6-1.7-1.1-2.7-1.1
		c-0.9,0-3.5,0-26.1,10.3l-0.9,0.4l-9.4-3.8l-0.4-0.9c-10.7-26.4-11.7-26.4-14.4-26.4h-21.7c-2.6,0-3.8,0-13.7,26.4l-0.4,1l-9.3,3.8
		l-0.9-0.4c-15.3-6.5-24.3-9.7-26.6-9.7c-0.9,0-2.1,0.4-2.7,1l-15.4,15c-1.9,1.9-2.8,2.7,9.4,28.3l0.5,0.9l-3.8,9.1l-0.9,0.3
		c-27,10.4-27,11.5-27,14.2v21.2c0,2.7,0,3.8,27.1,13.6l1,0.3l3.8,9l-0.4,0.9c-11.5,26.1-10.8,26.8-8.8,28.7l15.3,15
		c0.6,0.6,1.7,1.1,2.7,1.1c0.9,0,3.5,0,26.1-10.2l0.9-0.4l9.4,3.8l0.4,0.9c10.7,26.4,11.8,26.4,14.4,26.4h21.7
		c2.7,0,3.8,0,13.7-26.4l0.4-1l9.3-3.8l0.9,0.4c15.3,6.5,24.3,9.8,26.6,9.8c0.9,0,2-0.4,2.7-1l15.4-15c1.9-1.9,2.7-2.7-9.4-28.2
		l-0.4-0.9l3.8-9l0.9-0.3c27-10.5,27-11.5,27-14.2v-21.2C297.8,181.9,297.8,180.8,270.7,171.2L270.7,171.2z M195.6,230.1
		c-19.4,0-35.1-15.4-35.1-34.4c0-19,15.7-34.4,35.1-34.4c19.4,0,35.1,15.4,35.1,34.4C230.7,214.7,215,230.1,195.6,230.1L195.6,230.1
		z M195.6,230.1"/>
</g>
</svg>
