<?xml version="1.0" encoding="utf-8"?>
<!-- Generator: Adobe Illustrator 19.0.0, SVG Export Plug-In . SVG Version: 6.00 Build 0)  -->
<svg version="1.1" id="Layer_1" xmlns="http://www.w3.org/2000/svg" xmlns:xlink="http://www.w3.org/1999/xlink" x="0px" y="0px"
	 viewBox="0 0 40.9 34.6" style="enable-background:new 0 0 40.9 34.6;" xml:space="preserve">
<style type="text/css">
	.st0{fill:#939393;}
</style>
<g>
	<g>
		<g>
			<path class="st0" d="M39.9,17.7c-0.2,0-0.4-0.1-0.6-0.2L20.4,2.3L1.6,17.5c-0.4,0.3-1.1,0.3-1.4-0.1c-0.3-0.4-0.3-1.1,0.1-1.4
				L19.8,0.2c0.4-0.3,0.9-0.3,1.3,0l19.4,15.7c0.4,0.3,0.5,1,0.1,1.4C40.4,17.6,40.2,17.7,39.9,17.7z"/>
		</g>
		<g>
			<path class="st0" d="M33.4,34.6h-26c-0.3,0-0.5-0.2-0.5-0.5V17.4c0-0.1,0.1-0.3,0.2-0.4l13-10.7c0.2-0.2,0.4-0.2,0.6,0l13,10.6
				c0.1,0.1,0.2,0.2,0.2,0.4v16.7C33.9,34.3,33.7,34.6,33.4,34.6z M7.9,33.6h25V17.6L20.4,7.4L7.9,17.7V33.6z"/>
		</g>
	</g>
	<g>
		<rect x="16.6" y="23.1" class="st0" width="7.7" height="10.8"/>
		<path class="st0" d="M24.3,34.4h-7.7c-0.3,0-0.5-0.2-0.5-0.5V23.1c0-0.3,0.2-0.5,0.5-0.5h7.7c0.3,0,0.5,0.2,0.5,0.5v10.8
			C24.8,34.2,24.6,34.4,24.3,34.4z M17.1,33.4h6.7v-9.8h-6.7V33.4z"/>
	</g>
</g>
</svg>
