<?xml version="1.0" encoding="utf-8"?>
<!-- Generator: Adobe Illustrator 19.2.1, SVG Export Plug-In . SVG Version: 6.00 Build 0)  -->
<svg version="1.1" id="Layer_1" xmlns="http://www.w3.org/2000/svg" xmlns:xlink="http://www.w3.org/1999/xlink" x="0px" y="0px"
	 viewBox="0 0 78.2 78.2" style="enable-background:new 0 0 78.2 78.2;" xml:space="preserve">
<style type="text/css">
	.st0{fill-rule:evenodd;clip-rule:evenodd;fill:#CFCECE;}
</style>
<g>
	<path class="st0" d="M32,47.7c5.9-3,11.7-6.1,17.6-9.1c-5.9-3.1-11.7-6.1-17.6-9.2V47.7z M32,47.7"/>
	<path class="st0" d="M39.1,0C17.5,0,0,17.5,0,39.1c0,21.6,17.5,39.1,39.1,39.1c21.6,0,39.1-17.5,39.1-39.1C78.2,17.5,60.7,0,39.1,0
		L39.1,0z M65.7,52.2c-0.7,2.9-3.1,5.1-6,5.4c-6.8,0.8-13.8,0.8-20.7,0.8c-6.9,0-13.8,0-20.7-0.8c-2.9-0.3-5.3-2.5-6-5.4
		c-1-4.2-1-8.7-1-13.1c0-4.3,0-8.9,1-13.1c0.7-2.9,3.1-5.1,6-5.4c6.8-0.8,13.8-0.8,20.7-0.8c6.9,0,13.8,0,20.7,0.8
		c2.9,0.3,5.3,2.5,6,5.4c1,4.2,1,8.8,1,13.1C66.7,43.4,66.7,48,65.7,52.2L65.7,52.2z M65.7,52.2"/>
</g>
</svg>
