<?xml version="1.0" encoding="utf-8"?>
<!-- Generator: Adobe Illustrator 19.0.0, SVG Export Plug-In . SVG Version: 6.00 Build 0)  -->
<svg version="1.1" id="Layer_1" xmlns="http://www.w3.org/2000/svg" xmlns:xlink="http://www.w3.org/1999/xlink" x="0px" y="0px"
	 viewBox="0 0 237.6 181.5" style="enable-background:new 0 0 237.6 181.5;" xml:space="preserve">
<style type="text/css">
	.st0{fill:#04B74F;}
</style>
<g>
	<path class="st0" d="M36.3,0L36.3,0c-2.3,0-4.4,0.9-6,2.5c-1.6,1.6-2.5,3.8-2.5,6V136c0,4.7,3.8,8.5,8.5,8.5
		c19.8,0,52.9,4.2,75.8,28.1V39.2c0-1.6-0.4-3.1-1.2-4.3C92.3,4.6,56.2,0,36.3,0L36.3,0z M36.3,0"/>
	<path class="st0" d="M209.7,136V8.5c0-2.3-0.9-4.4-2.5-6c-1.6-1.6-3.7-2.5-6-2.5h0c-19.8,0-55.9,4.6-74.7,34.9
		c-0.8,1.2-1.2,2.7-1.2,4.3v133.4c22.9-23.9,56-28.1,75.8-28.1C205.9,144.5,209.7,140.7,209.7,136L209.7,136z M209.7,136"/>
	<path class="st0" d="M229.1,29.4h-6.2V136c0,11.9-9.7,21.7-21.7,21.7c-16.8,0-44.5,3.3-64.1,21.9c33.9-8.3,69.6-2.9,90,1.7
		c2.5,0.6,5.2,0,7.2-1.6c2-1.6,3.2-4,3.2-6.6V37.9C237.6,33.2,233.8,29.4,229.1,29.4L229.1,29.4z M229.1,29.4"/>
	<path class="st0" d="M14.7,136V29.4H8.5c-4.7,0-8.5,3.8-8.5,8.5V173c0,2.6,1.2,5,3.2,6.6c2,1.6,4.7,2.2,7.2,1.6
		c20.4-4.6,56.1-10,90-1.7c-19.6-18.6-47.3-21.8-64.1-21.9C24.4,157.7,14.7,147.9,14.7,136L14.7,136z M14.7,136"/>
</g>
</svg>
