<?xml version="1.0" encoding="utf-8"?>
<!-- Generator: Adobe Illustrator 19.0.0, SVG Export Plug-In . SVG Version: 6.00 Build 0)  -->
<svg version="1.1" id="Layer_1" xmlns="http://www.w3.org/2000/svg" xmlns:xlink="http://www.w3.org/1999/xlink" x="0px" y="0px"
	 viewBox="0 0 391.3 391.4" style="enable-background:new 0 0 391.3 391.4;" xml:space="preserve">
<style type="text/css">
	.st0{fill:#9E9E9E;}
</style>
<path class="st0" d="M309.1,0h-227C36.8,0,0,36.9,0,82.2v227c0,45.4,36.9,82.2,82.2,82.2h227c45.4,0,82.2-36.9,82.2-82.2V271v-8.4
	V128.3v-20.8V82.2C391.3,36.9,354.4,0,309.1,0z M363.8,128.3v134.2l0,0v46.6c0,30.2-24.6,54.8-54.7,54.8h-227
	c-30.2,0-54.7-24.6-54.7-54.8v-227c0-30.2,24.6-54.8,54.7-54.8h227c30.2,0,54.7,24.6,54.7,54.8v25.3V128.3z"/>
<g>
	<path class="st0" d="M108.9,163.4c2.7,1.9,10.9,7.6,24.6,17.1c13.7,9.5,24.1,16.8,31.4,21.9c0.8,0.6,2.5,1.8,5.1,3.7
		c2.6,1.9,4.8,3.4,6.5,4.6c1.7,1.2,3.8,2.5,6.2,3.9c2.4,1.4,4.7,2.5,6.9,3.2c2.2,0.7,4.2,1.1,6,1.1h0.2c1.8,0,3.8-0.4,6-1.1
		c2.2-0.7,4.5-1.8,6.9-3.2c2.4-1.4,4.5-2.7,6.2-3.9c1.7-1.2,3.9-2.7,6.5-4.6c2.6-1.9,4.3-3.1,5.1-3.7c7.3-5.1,26-18.1,56.1-39
		c5.8-4.1,10.7-9,14.6-14.7c3.9-5.8,5.9-11.8,5.9-18.1c0-5.3-1.9-9.8-5.7-13.5c-3.8-3.8-8.3-5.6-13.5-5.6H107.4
		c-6.2,0-10.9,2.1-14.2,6.2c-3.3,4.2-5,9.3-5,15.6c0,5,2.2,10.5,6.6,16.4C99.2,155.4,103.9,160,108.9,163.4L108.9,163.4z
		 M108.9,163.4"/>
	<path class="st0" d="M291.1,176.2c-26.2,17.7-46.1,31.5-59.7,41.3c-4.6,3.4-8.3,6-11.1,7.9c-2.8,1.9-6.6,3.8-11.3,5.8
		c-4.7,2-9.1,2.9-13.2,2.9h-0.2c-4.1,0-8.5-1-13.2-2.9c-4.7-2-8.5-3.9-11.3-5.8c-2.8-1.9-6.5-4.5-11.1-7.9
		c-10.8-7.9-30.6-21.7-59.6-41.3c-4.6-3-8.6-6.5-12.1-10.4v95.2c0,5.3,1.9,9.8,5.6,13.5c3.8,3.8,8.3,5.6,13.6,5.6h176.4
		c5.3,0,9.8-1.9,13.5-5.6c3.8-3.8,5.6-8.3,5.6-13.5v-95.2C299.6,169.6,295.6,173.1,291.1,176.2L291.1,176.2z M291.1,176.2"/>
</g>
</svg>
