<?xml version="1.0" encoding="utf-8"?>
<!-- Generator: Adobe Illustrator 19.0.0, SVG Export Plug-In . SVG Version: 6.00 Build 0)  -->
<svg version="1.1" id="Layer_1" xmlns="http://www.w3.org/2000/svg" xmlns:xlink="http://www.w3.org/1999/xlink" x="0px" y="0px"
	 viewBox="0 0 99.3 99.3" style="enable-background:new 0 0 99.3 99.3;" xml:space="preserve">
<style type="text/css">
	.st0{fill:#00A7FD;}
</style>
<g>
	<g>
		<path class="st0" d="M90.6,21.9l-7,9.8c1.1,2.1,2,4.2,2.7,6.5l-1.6,0.5c-2.2,0.7-3.5,3-3.1,5.3v0.1c0.4,2.3,2.4,4,4.7,3.9l1.7-0.1
			c0.1,2.1,0,4.2-0.2,6.4c-0.5,3.5-1.4,7-2.7,10.1l-1.5-0.6c-2.2-0.9-4.6-0.1-5.8,1.9c-0.1,0.1-0.1,0.2-0.2,0.2
			c-1.2,2-0.6,4.6,1.2,5.9l1.4,1c-3.4,4.5-7.8,8.2-12.9,10.7l-0.8-1.5c-1-2.1-3.5-3-5.8-2.2h-0.1c-2.2,0.8-3.5,3-3,5.4l0.4,1.7
			c-4.2,1-8.6,1.2-13.1,0.6c-1.2-0.2-2.4-0.4-3.6-0.6l0.3-1.5c0.5-2.2-0.7-4.5-2.8-5.3c-0.1,0-0.2-0.1-0.2-0.1
			c-2.2-0.9-4.7,0-5.8,2.1L32,83.6c-5-2.6-9.4-6.3-12.7-10.7l1.4-1c1.8-1.4,2.3-4,1.2-5.9c-0.1-0.1-0.1-0.2-0.2-0.2
			c-1.1-2-3.6-2.8-5.8-1.9l-1.5,0.6c-2.2-5.1-3.2-10.7-3-16.5l1.8,0.1c2.3,0.1,4.4-1.5,4.7-3.8v-0.1c0.4-2.2-1-4.5-3.2-5.1L13,38.5
			c1.7-5.6,4.6-10.6,8.4-14.7l1.2,1.1c1.7,1.6,4.3,1.6,6.1,0.2c0.1-0.1,0.2-0.2,0.2-0.2c1.8-1.5,2.2-4.1,0.9-6L29,17.4
			c4.6-3,10-5,15.7-5.8l0.2,1.8c0.3,2.3,2.2,4,4.6,4H50c2.3,0,4.2-1.7,4.6-4l0.2-1.8c2.3,0.3,4.6,0.9,6.8,1.5L70,4.8l0.2-0.2
			l0.1-0.1C65.8,2.4,61,1,55.8,0.4C28.6-3,3.8,16.2,0.4,43.4c-3.4,27.2,15.8,52,43,55.4c27.2,3.4,52-15.8,55.4-43
			C100.5,43.4,97.3,31.4,90.6,21.9C90.7,21.8,90.7,21.8,90.6,21.9L90.6,21.9z M90.6,21.9"/>
	</g>
	<path class="st0" d="M47.7,40.2c-5.2,1.1-8.6,6.4-7.2,11.9c1,4.1,4.8,7,9,7.1h0.2c5.4,0,9.5-4.3,9.6-9.4l17.6-25l5.9-8.4
		c0.7-1.4,0.6-2.8-0.1-3.8c-0.5-0.7-1.1-1.3-1.9-1.6c-0.5-0.2-1-0.3-1.4-0.3c-0.9,0-1.8,0.3-2.6,1L70,18.4L47.7,40.2z M47.7,40.2"/>
</g>
</svg>
