<?xml version="1.0" encoding="utf-8"?>
<!-- Generator: Adobe Illustrator 19.0.0, SVG Export Plug-In . SVG Version: 6.00 Build 0)  -->
<svg version="1.1" id="Layer_1" xmlns="http://www.w3.org/2000/svg" xmlns:xlink="http://www.w3.org/1999/xlink" x="0px" y="0px"
	 viewBox="-296 388.4 17.6 17.6" style="enable-background:new -296 388.4 17.6 17.6;" xml:space="preserve">
<style type="text/css">
	.st0{fill:#55ACEE;}
</style>
<g>
	<path class="st0" d="M-278.4,397.2c0-4.9-3.9-8.8-8.8-8.8c-4.9,0-8.8,3.9-8.8,8.8c0,4.9,3.9,8.8,8.8,8.8
		C-282.3,406-278.4,402.1-278.4,397.2L-278.4,397.2z M-291.9,400.3c0.2,0,0.3,0,0.5,0c0.9,0,1.7-0.3,2.4-0.9c-0.9,0-1.6-0.6-1.8-1.4
		c0.1,0,0.2,0,0.4,0c0.2,0,0.4,0,0.5-0.1c-0.9-0.2-1.6-1-1.6-2l0,0c0.2,0.2,0.5,0.3,0.8,0.3c-0.5-0.4-0.9-1-0.9-1.7
		c0-0.4,0.1-0.7,0.3-1c1,1.3,2.4,2.1,4,2.2c0-0.2,0-0.3,0-0.5c0-1.1,0.9-2,1.9-2c0.6,0,1.1,0.3,1.4,0.7c0.4-0.1,0.9-0.2,1.2-0.5
		c-0.1,0.5-0.5,0.9-0.9,1.1c0.4,0,0.8-0.1,1.1-0.3c-0.3,0.4-0.6,0.8-1,1c0,0.1,0,0.2,0,0.3c0,2.7-2,5.8-5.5,5.8
		C-290.1,401.3-291.1,400.9-291.9,400.3L-291.9,400.3z"/>
</g>
</svg>
