<?xml version="1.0" encoding="utf-8"?>
<!-- Generator: Adobe Illustrator 19.0.0, SVG Export Plug-In . SVG Version: 6.00 Build 0)  -->
<svg version="1.1" id="Layer_1" xmlns="http://www.w3.org/2000/svg" xmlns:xlink="http://www.w3.org/1999/xlink" x="0px" y="0px"
	 viewBox="-190 211 229.4 372" style="enable-background:new -190 211 229.4 372;" xml:space="preserve">
<style type="text/css">
	.st0{fill:#818181;}
</style>
<g>
	<path class="st0" d="M16.1,246.7C-4.1,223-34.8,211-75.3,211c-40.4,0-71.2,12-91.4,35.7c-20.3,23.8-23.3,51.7-23.3,66.2V481
		c0,14.5,3,42.4,23.3,66.2c20.2,23.8,51,35.8,91.4,35.8s71.2-12,91.4-35.7c20.3-23.8,23.3-51.7,23.3-66.2V312.9
		C39.4,298.4,36.4,270.5,16.1,246.7L16.1,246.7z M-75.3,340.6c-8.4,0-15.2-6.8-15.2-15.2v-32.6c0-8.4,6.8-15.2,15.2-15.2
		s15.2,6.8,15.2,15.2v32.6C-60.1,333.8-66.9,340.6-75.3,340.6L-75.3,340.6z M27.4,481.1c0,15-5,89.9-102.7,89.9
		S-178,496.1-178,481.1V312.9c0-14.7,4.8-86.8,96.7-89.8v43.2c-12.1,2.7-21.2,13.6-21.2,26.5v32.6c0,12.9,9.1,23.8,21.2,26.5v49.3
		c0,3.3,2.7,6,6,6s6-2.7,6-6v-49.3c12.1-2.7,21.2-13.6,21.2-26.5v-32.6c0-12.9-9.1-23.8-21.2-26.5v-43.2c92,3,96.7,75.1,96.7,89.8
		V481.1z"/>
</g>
</svg>
