<?xml version="1.0" encoding="utf-8"?>
<!-- Generator: Adobe Illustrator 19.2.1, SVG Export Plug-In . SVG Version: 6.00 Build 0)  -->
<svg version="1.1" id="Layer_1" xmlns="http://www.w3.org/2000/svg" xmlns:xlink="http://www.w3.org/1999/xlink" x="0px" y="0px"
	 viewBox="0 0 44 46" style="enable-background:new 0 0 44 46;" xml:space="preserve">
<style type="text/css">
	.st0{fill:#4A4A4A;}
	.st1{fill:#FFFFFF;}
	.st2{fill:#04B74F;}
</style>
<g>
	<g>
		<path class="st0" d="M35.5,24.3L21.6,13.5L7.8,24.3v-4.4L21.6,9.1l13.8,10.7V24.3z M32,23.9v10.4h-6.9v-6.9h-6.9v6.9h-6.9V23.9
			l10.4-7.8L32,23.9z M32,23.9"/>
	</g>
	<path class="st0" d="M20,41.6H9.7c-4.5,0-8.1-3.7-8.1-8.1V9.7c0-4.5,3.7-8.1,8.1-8.1h23.7c4.5,0,8.1,3.6,8.1,8.1V24
		c0,0.4,0.4,0.8,0.8,0.8c0.4,0,0.8-0.4,0.8-0.8V9.7c0-5.4-4.4-9.7-9.7-9.7H9.7C4.4,0,0,4.4,0,9.7v23.7c0,5.4,4.4,9.7,9.7,9.7H20
		c0.4,0,0.8-0.4,0.8-0.8C20.8,42,20.4,41.6,20,41.6L20,41.6z M20,41.6"/>
</g>
<rect x="29.7" y="27.5" class="st1" width="8.4" height="10.7"/>
<path class="st2" d="M33.5,46C39.3,46,44,41.3,44,35.5C44,29.7,39.3,25,33.5,25c-3,0-5.8,1.3-7.7,3.3c-1.8,1.9-2.8,4.4-2.8,7.2
	C22.9,41.3,27.7,46,33.5,46L33.5,46z M29.8,39.7c0.1-0.3,0.2-0.7,0.3-1c0.1-0.4,0.2-0.4,0.6-0.3c0.6,0.3,1.3,0.5,2,0.6
	c0.4,0.1,0.9,0,1.3-0.2c0.8-0.3,0.9-1.2,0.2-1.8c-0.2-0.2-0.5-0.3-0.7-0.4c-0.7-0.3-1.4-0.5-2-0.9c-1-0.6-1.7-1.5-1.6-2.7
	c0.1-1.4,0.9-2.3,2.2-2.8c0.5-0.2,0.5-0.2,0.5-0.8v-0.6c0-0.4,0.1-0.5,0.5-0.5c0.1,0,0.3,0,0.4,0c0.9,0,0.9,0,0.9,0.9
	c0,0.6,0,0.6,0.6,0.7c0.5,0.1,1,0.2,1.4,0.4c0.2,0.1,0.3,0.3,0.3,0.5c-0.1,0.4-0.2,0.8-0.3,1.2c-0.1,0.4-0.2,0.4-0.6,0.2
	c-0.7-0.3-1.4-0.5-2.2-0.4c-0.2,0-0.4,0-0.6,0.1c-0.7,0.3-0.8,1-0.2,1.5c0.3,0.2,0.6,0.4,1,0.5c0.6,0.2,1.2,0.5,1.8,0.8
	c1.8,1,2.3,3.3,1,4.8c-0.5,0.6-1.1,0.9-1.8,1.1c-0.3,0.1-0.4,0.2-0.4,0.6c0,0.3,0,0.6,0,0.9c0,0.3-0.1,0.4-0.4,0.4c-0.3,0-0.7,0-1,0
	c-0.3,0-0.4-0.2-0.4-0.5c0-0.2,0-0.5,0-0.7c0-0.5,0-0.5-0.5-0.6c-0.6-0.1-1.2-0.2-1.8-0.5C29.7,40.3,29.7,40.1,29.8,39.7L29.8,39.7z
	 M29.8,39.7"/>
</svg>
