<?xml version="1.0" encoding="utf-8"?>
<!-- Generator: Adobe Illustrator 19.0.0, SVG Export Plug-In . SVG Version: 6.00 Build 0)  -->
<svg version="1.1" id="Layer_1" xmlns="http://www.w3.org/2000/svg" xmlns:xlink="http://www.w3.org/1999/xlink" x="0px" y="0px"
	 viewBox="0 0 42.4 42.4" style="enable-background:new 0 0 42.4 42.4;" xml:space="preserve">
<style type="text/css">
	.st0{fill:#FFFFFF;}
	.st1{fill:#00A7FD;}
</style>
<g>
	<g>
		<path class="st0" d="M14.9,33.2l-6.3,3.4c-0.4,0.2-0.7,0.5-1,0.7c3.7,3.1,8.4,5,13.6,5c5.2,0,9.9-1.8,13.6-4.9
			c-0.3-0.3-0.7-0.5-1.1-0.7l-6.8-3.4C26,32.9,25.5,32,25.5,31v-2.7c0.2-0.2,0.4-0.5,0.6-0.8c0.9-1.3,1.6-2.7,2.1-4.2
			c0.9-0.3,1.5-1.1,1.5-2v-2.8c0-0.6-0.3-1.2-0.7-1.6v-4.1c0,0,0.8-6.4-7.8-6.4c-8.6,0-7.8,6.4-7.8,6.4v4.1
			c-0.4,0.4-0.7,0.9-0.7,1.6v2.8c0,0.7,0.4,1.4,1,1.8c0.7,3.1,2.6,5.3,2.6,5.3V31C16.2,31.9,15.7,32.8,14.9,33.2L14.9,33.2z
			 M14.9,33.2"/>
		<path class="st1" d="M21.6,0C9.9-0.2,0.2,9.1,0,20.8c-0.1,6.6,2.8,12.6,7.6,16.6c0.3-0.3,0.6-0.5,1-0.7l6.3-3.4
			c0.8-0.5,1.3-1.3,1.3-2.3v-2.6c0,0-1.9-2.2-2.6-5.3c-0.6-0.4-1-1-1-1.8v-2.8c0-0.6,0.3-1.2,0.7-1.6v-4.1c0,0-0.8-6.4,7.8-6.4
			c8.6,0,7.8,6.4,7.8,6.4v4.1c0.4,0.4,0.7,0.9,0.7,1.6v2.8c0,1-0.6,1.8-1.5,2c-0.5,1.5-1.2,2.9-2.1,4.2c-0.2,0.3-0.4,0.6-0.6,0.8V31
			c0,1,0.6,1.9,1.4,2.3l6.8,3.4c0.4,0.2,0.8,0.5,1.1,0.7c4.6-3.8,7.5-9.5,7.6-15.9C42.6,9.9,33.3,0.2,21.6,0L21.6,0z M21.6,0"/>
	</g>
</g>
</svg>
