<?xml version="1.0" encoding="utf-8"?>
<!-- Generator: Adobe Illustrator 19.0.0, SVG Export Plug-In . SVG Version: 6.00 Build 0)  -->
<svg version="1.1" id="Layer_1" xmlns="http://www.w3.org/2000/svg" xmlns:xlink="http://www.w3.org/1999/xlink" x="0px" y="0px"
	 viewBox="-109 201.6 391.3 391.4" style="enable-background:new -109 201.6 391.3 391.4;" xml:space="preserve">
<style type="text/css">
	.st0{fill:#FFFFFF;}
</style>
<path class="st0" d="M200.1,201.6h-227c-45.3,0-82.1,36.9-82.1,82.2v227c0,45.4,36.9,82.2,82.2,82.2h227c45.4,0,82.2-36.9,82.2-82.2
	v-38.2v-8.4V329.9v-20.8v-25.3C282.3,238.5,245.4,201.6,200.1,201.6z M254.8,329.9v134.2l0,0v46.6c0,30.2-24.6,54.8-54.7,54.8h-227
	c-30.2,0-54.7-24.6-54.7-54.8v-227c0-30.2,24.6-54.8,54.7-54.8h227c30.2,0,54.7,24.6,54.7,54.8V309V329.9z"/>
<g>
	<path class="st0" d="M-31.6,458.7v59.5h59.5l138.9-138.9l-59.5-59.5L-31.6,458.7z M19.7,498.4H8.1v-19.8h-19.8V467l24-24l31.4,31.4
		L19.7,498.4z M110.4,356.4l-72.3,72.3c-2.3,2.4-4.6,2.4-6.8,0.2c-2.2-2.2-2.1-4.5,0.2-6.8l72.3-72.3c2.3-2.3,4.6-2.4,6.8-0.2
		C112.8,351.8,112.8,354.1,110.4,356.4z"/>
	<path class="st0" d="M199.1,319l-31.4-31.4c-3.9-3.9-8.5-5.8-14.1-5.8c-5.5,0-10.2,1.9-14,5.8l-19,19l59.5,59.5l19-19
		c3.9-3.8,5.8-8.5,5.8-14C204.9,327.5,202.9,322.9,199.1,319z"/>
</g>
</svg>
