<?xml version="1.0" encoding="utf-8"?>
<!-- Generator: Adobe Illustrator 19.0.0, SVG Export Plug-In . SVG Version: 6.00 Build 0)  -->
<svg version="1.1" id="Layer_1" xmlns="http://www.w3.org/2000/svg" xmlns:xlink="http://www.w3.org/1999/xlink" x="0px" y="0px"
	 viewBox="0 0 391.3 391.4" style="enable-background:new 0 0 391.3 391.4;" xml:space="preserve">
<style type="text/css">
	.st0{fill:#9E9E9E;}
</style>
<path class="st0" d="M309.1,0h-227C36.8,0,0,36.9,0,82.2v227c0,45.4,36.9,82.2,82.2,82.2h227c45.4,0,82.2-36.9,82.2-82.2V271v-8.4
	V128.3v-20.8V82.2C391.3,36.9,354.4,0,309.1,0z M363.8,128.3v134.2l0,0v46.6c0,30.2-24.6,54.8-54.7,54.8h-227
	c-30.2,0-54.7-24.6-54.7-54.8v-227c0-30.2,24.6-54.8,54.7-54.8h227c30.2,0,54.7,24.6,54.7,54.8v25.3V128.3z"/>
<path class="st0" d="M168,264.5c3.6-3.5,3.6-9.3,0-12.8l-46.8-46.8h170.9c5.1,0,9.1-4.1,9.1-9.1c0-5.1-4.1-9.1-9.1-9.1h-171
	l46.9-46.9c3.6-3.6,3.6-9.3,0-12.9c-3.6-3.6-9.3-3.6-12.9,0l-62.4,62.4c-3.6,3.6-3.6,9.3,0,12.9l62.4,62.4c1.8,1.8,4.1,2.7,6.5,2.7
	C164,267.2,166.3,266.3,168,264.5L168,264.5z M168,264.5"/>
</svg>
