<?xml version="1.0" encoding="utf-8"?>
<!-- Generator: Adobe Illustrator 19.0.0, SVG Export Plug-In . SVG Version: 6.00 Build 0)  -->
<svg version="1.1" id="Layer_1" xmlns="http://www.w3.org/2000/svg" xmlns:xlink="http://www.w3.org/1999/xlink" x="0px" y="0px"
	 viewBox="0 0 240 240" style="enable-background:new 0 0 240 240;" xml:space="preserve">
<style type="text/css">
	.st0{fill:#FFFFFF;}
	.st1{fill:#9147A7;}
</style>
<g>
	<path class="st0" d="M138.9,150.4c-2.8,2.8-5.4,5.3-7.7,7.3c16.1,1.6,25.5,6.7,25.5,9.6c0,3.6-13.8,10.2-36.2,10.2
		c-22.5,0-36.2-6.6-36.2-10.2c0-2.9,9.1-7.8,24.6-9.6c-2.3-2-4.9-4.5-7.6-7.2C87,153.1,76,158.8,76,167.3
		c0,12.1,22.4,18.5,44.5,18.5c22.1,0,44.5-6.3,44.5-18.5C165.1,158.6,153.6,152.9,138.9,150.4z"/>
	<path class="st0" d="M117.6,148.9C117.7,148.9,117.7,148.9,117.6,148.9c0.9,0.8,1.6,1.5,2.4,2.1c10.5-9,36.9-34,36.9-58.7
		c0-20.2-16.4-36.9-36.7-37.3c-0.1,0-0.2,0-0.3,0c-0.1,0-0.2,0-0.3,0c-20.2,0.3-36.7,17-36.7,37.3C83.1,115.2,106,138.6,117.6,148.9
		z M101,88.5c0-10.7,8.6-19.3,19.3-19.3c10.7,0,19.3,8.7,19.3,19.3c0,10.7-8.6,19.3-19.3,19.3C109.7,107.8,101,99.1,101,88.5z"/>
	<circle class="st1" cx="120.3" cy="88.5" r="19.3"/>
	<path class="st1" d="M120,0C53.7,0,0,53.7,0,120c0,66.3,53.7,120,120,120c66.3,0,120-53.7,120-120C240,53.7,186.3,0,120,0z
		 M120.5,185.8c-22.1,0-44.5-6.3-44.5-18.5c0-8.5,11-14.2,25.3-16.8c2.8,2.8,5.4,5.2,7.6,7.2c-15.5,1.7-24.6,6.6-24.6,9.6
		c0,3.6,13.8,10.2,36.2,10.2c22.5,0,36.2-6.6,36.2-10.2c0-3-9.5-8-25.5-9.6c2.3-2.1,4.9-4.5,7.7-7.3c14.6,2.5,26.1,8.3,26.1,17
		C165.1,179.5,142.7,185.8,120.5,185.8z M83.1,92.2c0-20.2,16.4-36.9,36.7-37.3c0.1,0,0.2,0,0.3,0c0.1,0,0.2,0,0.3,0
		c20.2,0.3,36.7,17,36.7,37.3c0,24.7-26.4,49.8-36.9,58.7c-0.7-0.6-1.5-1.3-2.3-2c0,0,0,0,0,0C106,138.6,83.1,115.2,83.1,92.2z"/>
</g>
</svg>
