<?xml version="1.0" encoding="utf-8"?>
<!-- Generator: Adobe Illustrator 19.0.0, SVG Export Plug-In . SVG Version: 6.00 Build 0)  -->
<svg version="1.1" id="Layer_1" xmlns="http://www.w3.org/2000/svg" xmlns:xlink="http://www.w3.org/1999/xlink" x="0px" y="0px"
	 viewBox="0 0 171.8 193.3" style="enable-background:new 0 0 171.8 193.3;" xml:space="preserve">
<style type="text/css">
	.st0{fill-rule:evenodd;clip-rule:evenodd;fill:#04B74F;}
</style>
<g>
	<g>
		<path class="st0" d="M156.2,106.9c8.3,0.4,15.3-6.1,15.7-14.6c0.4-8.4-5.5-16-13.7-16.4l-55-6.9c0,0,11.5-19.2,11.5-47.6
			C114.6,2.5,101,0,93.1,0c-6.3,0-7.9,12.1-7.9,12.1h0c-1.4,7.8-3.3,14.6-9.7,27.1c-7.2,14-16.9,12.7-28.4,25.2
			c-2,2.2-4.7,5.8-7.4,10.3c-0.2,0.2-0.4,0.6-0.6,1c-0.2,0.6-0.5,0.9-0.8,1.4c-0.4,0.8-0.9,1.6-1.3,2.4C30,86.6,19,85.9,14.3,85.9
			C4.9,85.9,0,91.4,0,100.2l0,65.5c0,9.9,4.1,13.3,14.3,13.3h14.3c7.2,0,12.9,4.1,21.5,7.2c11.8,4.1,29.5,7.2,59.8,7.2
			c5.3,0,21.8,0,21.8,0c5,0,9.1-2.3,12-5.1c1.1-1.1,2.3-2.6,2.8-5.6c0.1-0.5,0.2-2.4,0.2-2.7c0.4-8.6-4.8-11.7-7.7-12.7
			c0.1,0,0-0.1,0.2-0.1l9.3,0.4c8.3,0.4,16.5-5.6,16.5-15.7c0-8.4-6.8-14.3-15.1-14.8l4.9,0.2c8.3,0.4,15.3-6.2,15.7-14.6
			C170.9,114.4,164.4,107.2,156.2,106.9L156.2,106.9z M156.2,106.9"/>
	</g>
</g>
</svg>
