<?xml version="1.0" encoding="utf-8"?>
<!-- Generator: Adobe Illustrator 19.2.1, SVG Export Plug-In . SVG Version: 6.00 Build 0)  -->
<svg version="1.1" id="Layer_1" xmlns="http://www.w3.org/2000/svg" xmlns:xlink="http://www.w3.org/1999/xlink" x="0px" y="0px"
	 viewBox="0 0 45.1 46" style="enable-background:new 0 0 45.1 46;" xml:space="preserve">
<style type="text/css">
	.st0{fill:#4A4A4A;}
	.st1{fill:#04B74F;}
</style>
<g>
	<path class="st0" d="M21.6,9.6c-0.4,0-0.8,0.4-0.8,0.8c0,0.4,0.4,0.8,0.8,0.8H36c0.4,0,0.8-0.4,0.8-0.8c0-0.4-0.4-0.8-0.8-0.8H21.6
		z M21.6,9.6"/>
	<path class="st0" d="M36.8,21.6c0-0.4-0.4-0.8-0.8-0.8H21.6c-0.4,0-0.8,0.4-0.8,0.8c0,0.4,0.4,0.8,0.8,0.8H36
		C36.4,22.4,36.8,22,36.8,21.6L36.8,21.6z M36.8,21.6"/>
	<path class="st0" d="M16.5,5.8c-0.3-0.3-0.8-0.3-1.1,0.1l-5,5.8L7.3,9.4C6.9,9.2,6.4,9.2,6.2,9.6C5.9,9.9,6,10.4,6.3,10.7l3.7,2.7
		c0.1,0.1,0.3,0.2,0.5,0.2c0.2,0,0.4-0.1,0.6-0.3l5.5-6.4C16.8,6.6,16.8,6.1,16.5,5.8L16.5,5.8z M16.5,5.8"/>
	<path class="st0" d="M16.5,17c-0.3-0.3-0.8-0.2-1.1,0.1l-5,5.8l-3.1-2.3c-0.4-0.3-0.9-0.2-1.1,0.2c-0.3,0.4-0.2,0.9,0.2,1.1
		l3.7,2.7c0.1,0.1,0.3,0.2,0.5,0.2c0.2,0,0.4-0.1,0.6-0.3l5.5-6.4C16.8,17.8,16.8,17.3,16.5,17L16.5,17z M16.5,17"/>
	<path class="st0" d="M15.3,29.1l-5,5.8l-3.1-2.3c-0.4-0.3-0.9-0.2-1.1,0.2c-0.3,0.4-0.2,0.9,0.2,1.1l3.7,2.7
		c0.1,0.1,0.3,0.2,0.5,0.2c0.2,0,0.4-0.1,0.6-0.3l5.5-6.4c0.3-0.3,0.3-0.8-0.1-1.1C16.1,28.7,15.6,28.7,15.3,29.1L15.3,29.1z
		 M15.3,29.1"/>
	<path class="st0" d="M20,41.6H9.7c-4.5,0-8.1-3.7-8.1-8.1V9.7c0-4.5,3.7-8.1,8.1-8.1h23.7c4.5,0,8.1,3.6,8.1,8.1V24
		c0,0.4,0.4,0.8,0.8,0.8c0.4,0,0.8-0.4,0.8-0.8V9.7c0-5.4-4.4-9.7-9.7-9.7H9.7C4.4,0,0,4.4,0,9.7v23.7c0,5.4,4.4,9.7,9.7,9.7H20
		c0.4,0,0.8-0.4,0.8-0.8C20.8,42,20.4,41.6,20,41.6L20,41.6z M20,41.6"/>
</g>
<g>
	<path class="st1" d="M45,32.9c-0.1-0.3-0.4-0.6-0.7-0.6l-7-1l-3.1-6c-0.3-0.6-1.3-0.6-1.6,0l-3.1,6l-7,1c-0.3,0-0.6,0.3-0.7,0.6
		c-0.1,0.3,0,0.7,0.2,0.9l5,4.6L25.9,45c-0.1,0.3,0.1,0.7,0.3,0.9c0.3,0.2,0.6,0.2,0.9,0.1l6.2-3.1l6.2,3.1C39.8,46,40,46,40.1,46
		c0.2,0,0.4-0.1,0.5-0.2c0.3-0.2,0.4-0.5,0.3-0.9l-1.2-6.5l5-4.6C45.1,33.6,45.2,33.3,45,32.9L45,32.9z M38.2,37.5
		c-0.2,0.2-0.3,0.5-0.3,0.8l1,5.3l-5-2.5C33.7,41,33.6,41,33.5,41c-0.1,0-0.3,0-0.4,0.1l-5,2.5l1-5.3c0.1-0.3,0-0.6-0.3-0.8l-4-3.7
		l5.6-0.8c0.3,0,0.5-0.2,0.7-0.5l2.5-4.8l2.5,4.8c0.1,0.3,0.4,0.4,0.7,0.5l5.6,0.8L38.2,37.5z M38.2,37.5"/>
	<polygon class="st1" points="28.1,38.4 27.1,44.6 33.5,41.8 39.5,44.6 38.9,38.4 44.2,33.2 37,32.1 33.5,26.2 30.1,32.1 23.3,33.2 
			"/>
</g>
</svg>
