<?xml version="1.0" encoding="utf-8"?>
<!-- Generator: Adobe Illustrator 19.0.0, SVG Export Plug-In . SVG Version: 6.00 Build 0)  -->
<svg version="1.1" id="Layer_1" xmlns="http://www.w3.org/2000/svg" xmlns:xlink="http://www.w3.org/1999/xlink" x="0px" y="0px"
	 viewBox="0 0 348 391.7" style="enable-background:new 0 0 348 391.7;" xml:space="preserve">
<style type="text/css">
	.st0{fill:#9E9E9E;}
</style>
<g>
	<g>
		<path class="st0" d="M348,196.5C348,117,294.3,47.7,217.4,28c-7.4-1.9-14.9,2.6-16.7,9.9c-1.9,7.4,2.6,14.9,9.9,16.7
			c64.7,16.6,109.9,75,109.9,141.8c0,59-35.1,111.2-87.7,134.2l12.7-29.6c3-7-0.2-15-7.2-18.1c-7-3-15,0.2-18.1,7.2l-24.8,57.8
			c-3,7,0.2,15,7.2,18.1l57.8,24.8c8.6,3,15.8-2,18.1-7.2c3-7-0.2-15-7.2-18.1l-25.1-10.8C307.4,327,348,265.6,348,196.5L348,196.5z
			 M348,196.5"/>
		<path class="st0" d="M137.4,338.3c-64.7-16.6-109.9-75-109.9-141.8c0-58.2,34.2-109.8,85.5-133.2l-11.9,27.7
			c-3,7,0.1,15.4,7.2,18.1c8.3,3.1,15.4-0.6,18.1-7.2L151.2,44c2.4-5.6,2.3-14-7.2-18.1L86.2,1.1c-7-3-15,0.2-18.1,7.2
			c-3,7,0.2,15,7.2,18.1l26.9,11.5C40.8,65.7,0,127.2,0,196.5c0,79.4,53.8,148.6,130.6,168.5c9.3,2.4,15.1-3.7,16.7-9.9
			C149.2,347.7,144.8,340.2,137.4,338.3L137.4,338.3z M137.4,338.3"/>
	</g>
	<path class="st0" d="M206.4,248.3c7-7.4,10.6-16.6,10.6-27.7c0-5-0.9-9.7-2.6-14c-1.7-4.3-4.1-8-7.2-11.2c-3.1-3.1-7.2-5.8-12.2-8
		c-2.6-1.1-7.9-2.7-16-4.7v-45.9c5.2,1,9.3,3.3,12.3,6.6c3,3.4,5,8.2,5.9,14.4l16.5-2.5c-1.4-10.1-5.6-18.1-12.6-23.8
		c-5.4-4.6-12.8-7.3-22.1-8.2v-7.6h-9.4v7.6c-10.6,1-18.6,4-23.9,8.7c-8.1,7-12.1,16.2-12.1,27.6c0,6.4,1.4,12.1,4.2,17.1
		c2.7,5,6.6,9,11.8,11.8c6.9,3.8,13.6,6.4,20.2,7.6v50.8c-6.2-0.6-11.7-3.8-16.2-9.5c-3.1-4-5.4-10.3-6.6-18.9l-16.1,3
		c0.6,8.2,2.7,15.3,6.3,21c3.6,5.8,7.9,9.9,13,12.5c5,2.6,11.5,4.3,19.4,5.4v15.9h9.4v-16.2C190.3,259.7,199.4,255.7,206.4,248.3
		L206.4,248.3z M169.8,180.7c-7.3-2.2-12.4-5.1-15.4-8.8c-3-3.7-4.6-8.2-4.6-13.7c0-5.5,1.8-10.2,5.4-14.2c3.6-4,8.5-6.5,14.6-7.4
		V180.7z M194.5,238.8c-4.1,4.6-9.2,7.3-15.4,8.1v-48.6c8.6,2.8,14.3,5.9,17.2,9.4c2.9,3.5,4.3,8.2,4.3,14
		C200.6,228.5,198.6,234.2,194.5,238.8L194.5,238.8z M194.5,238.8"/>
</g>
</svg>
