<?xml version="1.0" encoding="utf-8"?>
<!-- Generator: Adobe Illustrator 19.0.0, SVG Export Plug-In . SVG Version: 6.00 Build 0)  -->
<svg version="1.1" id="Layer_1" xmlns="http://www.w3.org/2000/svg" xmlns:xlink="http://www.w3.org/1999/xlink" x="0px" y="0px"
	 viewBox="-283 374 43.1 44.8" style="enable-background:new -283 374 43.1 44.8;" xml:space="preserve">
<style type="text/css">
	.st0{fill:#04B74F;}
	.st1{fill:#4A4A4A;}
</style>
<g>
	<path class="st0" d="M-242,407.2l-7.6,8.8l-4.6-3.5c-0.5-0.4-1.3-0.3-1.7,0.2s-0.3,1.3,0.2,1.7l5.5,4.2c0.2,0.2,0.5,0.2,0.7,0.2
		c0.3,0,0.7-0.1,0.9-0.4l8.3-9.7c0.4-0.5,0.4-1.3-0.1-1.7S-241.6,406.7-242,407.2L-242,407.2z"/>
	<path class="st1" d="M-263,415.6h-10.3c-4.5,0-8.1-3.7-8.1-8.1v-23.8c0-4.5,3.7-8.1,8.1-8.1h23.7c4.5,0,8.1,3.6,8.1,8.1V398
		c0,0.4,0.4,0.8,0.8,0.8c0.4,0,0.8-0.4,0.8-0.8v-14.3c0-5.4-4.4-9.7-9.7-9.7h-23.7c-5.3,0-9.7,4.4-9.7,9.7v23.7
		c0,5.4,4.4,9.7,9.7,9.7h10.3c0.4,0,0.8-0.4,0.8-0.8C-262.2,416-262.6,415.6-263,415.6L-263,415.6z"/>
	<path class="st1" d="M-252.9,402.1l-4.6-2.3c-0.6-0.3-1-0.9-1-1.6v-1.8c0.1-0.1,0.3-0.3,0.4-0.6c0.6-0.9,1.1-1.9,1.4-2.9
		c0.6-0.2,1-0.7,1-1.4v-1.9c0-0.4-0.2-0.8-0.5-1.1v-2.8c0,0,0.6-4.4-5.3-4.4s-5.3,4.4-5.3,4.4v2.8c-0.3,0.3-0.5,0.6-0.5,1.1v1.9
		c0,0.5,0.3,1,0.7,1.2c0.5,2.1,1.8,3.6,1.8,3.6v1.8c0,0.6-0.4,1.2-0.9,1.5l-4.3,2.5c-1.2,0.7-2,2-2,3.4v1.6h21.3v-1.5
		C-250.7,404.1-251.6,402.8-252.9,402.1L-252.9,402.1z"/>
</g>
</svg>
