<?xml version="1.0" encoding="utf-8"?>
<!-- Generator: Adobe Illustrator 19.2.1, SVG Export Plug-In . SVG Version: 6.00 Build 0)  -->
<svg version="1.1" id="icons" xmlns="http://www.w3.org/2000/svg" xmlns:xlink="http://www.w3.org/1999/xlink" x="0px" y="0px"
	 viewBox="0 0 60 44" style="enable-background:new 0 0 60 44;" xml:space="preserve">
<style type="text/css">
	.st0{fill:#939393;}
</style>
<g>
	<path class="st0" d="M57.5,20c-0.3,0-0.5-0.2-0.5-0.5V1c0-0.6-0.4-1-1-1H4C3.4,0,3,0.4,3,1v18.5C3,19.8,2.8,20,2.5,20H1
		c-0.6,0-1,0.4-1,1v16c0,0.6,0.4,1,1,1h1.5C2.8,38,3,38.2,3,38.5V43c0,0.6,0.4,1,1,1c0.6,0,1-0.4,1-1v-4.5C5,38.2,5.2,38,5.5,38h49
		c0.3,0,0.5,0.2,0.5,0.5V43c0,0.6,0.4,1,1,1c0.6,0,1-0.4,1-1v-4.5c0-0.3,0.2-0.5,0.5-0.5H59c0.6,0,1-0.4,1-1V21c0-0.6-0.4-1-1-1
		H57.5z M5,2.5C5,2.2,5.2,2,5.5,2h49C54.8,2,55,2.2,55,2.5v17c0,0.3-0.2,0.5-0.5,0.5h-1c-0.3,0-0.5-0.2-0.5-0.5V11c0-0.6-0.4-1-1-1
		H32c-0.6,0-1,0.4-1,1v8.5c0,0.3-0.2,0.5-0.5,0.5h-1c-0.3,0-0.5-0.2-0.5-0.5V11c0-0.6-0.4-1-1-1H8c-0.6,0-1,0.4-1,1v8.5
		C7,19.8,6.8,20,6.5,20h-1C5.2,20,5,19.8,5,19.5V2.5z M50.5,12c0.3,0,0.5,0.2,0.5,0.5v7c0,0.3-0.2,0.5-0.5,0.5h-17
		c-0.3,0-0.5-0.2-0.5-0.5v-7c0-0.3,0.2-0.5,0.5-0.5H50.5z M26.5,12c0.3,0,0.5,0.2,0.5,0.5v7c0,0.3-0.2,0.5-0.5,0.5h-17
		C9.2,20,9,19.8,9,19.5v-7C9,12.2,9.2,12,9.5,12H26.5z M58,35.5c0,0.3-0.2,0.5-0.5,0.5h-55C2.2,36,2,35.8,2,35.5v-3
		C2,32.2,2.2,32,2.5,32h55c0.3,0,0.5,0.2,0.5,0.5V35.5z M58,29.5c0,0.3-0.2,0.5-0.5,0.5h-55C2.2,30,2,29.8,2,29.5v-7
		C2,22.2,2.2,22,2.5,22h55c0.3,0,0.5,0.2,0.5,0.5V29.5z"/>
</g>
</svg>
