<?xml version="1.0" encoding="utf-8"?>
<!-- Generator: Adobe Illustrator 19.0.0, SVG Export Plug-In . SVG Version: 6.00 Build 0)  -->
<svg version="1.1" id="Layer_1" xmlns="http://www.w3.org/2000/svg" xmlns:xlink="http://www.w3.org/1999/xlink" x="0px" y="0px"
	 viewBox="-283.6 358.7 41.7 76.9" style="enable-background:new -283.6 358.7 41.7 76.9;" xml:space="preserve">
<style type="text/css">
	.st0{fill:#2A4376;}
</style>
<g>
	<path class="st0" d="M-243.5,358.7h-10c-11.2,0-18.4,7.4-18.4,18.9v1.7v7H-282c-0.9,0-1.6,0.7-1.6,1.6v1.7v10.9
		c0,0.9,0.7,1.6,1.6,1.6h10v1.7V434c0,0.9,0.7,1.6,1.6,1.6h13.1c0.9,0,1.6-0.7,1.6-1.6v-30.2v-1.7h11.7c0.9,0,1.6-0.7,1.6-1.6v-11
		v-1.7c0-0.4-0.2-0.8-0.5-1.1c-0.3-0.2-0.7-0.4-1.1-0.4h-11.7v-5.7v-1.7c0-3.6,0.8-5.4,5.5-5.4h6.7c0.9,0,1.6-0.7,1.6-1.6v-10v-1.6
		C-242,359.4-242.7,358.7-243.5,358.7z"/>
</g>
</svg>
