<?xml version="1.0" encoding="utf-8"?>
<!-- Generator: Adobe Illustrator 19.0.0, SVG Export Plug-In . SVG Version: 6.00 Build 0)  -->
<svg version="1.1" id="Layer_1" xmlns="http://www.w3.org/2000/svg" xmlns:xlink="http://www.w3.org/1999/xlink" x="0px" y="0px"
	 viewBox="-271 362.4 68.5 68.5" style="enable-background:new -271 362.4 68.5 68.5;" xml:space="preserve">
<style type="text/css">
	.st0{fill:#9B9B9B;}
</style>
<g>
	<path class="st0" d="M-205.2,383.3c-3.6-8.4-9.8-14.6-18.2-18.2c-4.2-1.8-8.6-2.7-13.3-2.7c-4.6,0-9.1,0.9-13.3,2.7
		c-8.5,3.7-14.7,9.8-18.3,18.2c-1.8,4.3-2.7,8.7-2.7,13.3c0,4.6,0.9,9.1,2.7,13.3c3.6,8.5,9.8,14.7,18.3,18.3
		c4.2,1.8,8.7,2.7,13.3,2.7c4.7,0,9.1-0.9,13.3-2.7c8.4-3.6,14.6-9.8,18.2-18.2c1.8-4.2,2.7-8.7,2.7-13.3
		C-202.4,392-203.3,387.6-205.2,383.3L-205.2,383.3z M-236.7,366.5c4.5,0,8.8,0.9,12.8,2.8l-4.8,9.2c-2.7-1.1-5.3-1.7-8.1-1.7
		c-2.9,0-5.7,0.6-8.2,1.8l-4.7-9.2C-245.5,367.5-241.2,366.5-236.7,366.5L-236.7,366.5z M-264,409.4c-1.9-3.9-2.8-8.1-2.8-12.7
		c0-4.5,0.9-8.7,2.7-12.6l9.2,4.8c-1.1,2.6-1.6,5.3-1.6,7.8c0,2.8,0.6,5.4,1.7,8L-264,409.4z M-236.7,426.8c-4.5,0-8.7-1-12.9-2.9
		l4.7-9.1c2.5,1.2,5.2,1.8,8.2,1.8c2.8,0,5.4-0.6,8-1.7l4.8,9.1C-227.8,425.9-232.1,426.8-236.7,426.8L-236.7,426.8z M-225.6,407.8
		c-3,3.1-6.7,4.6-11,4.6c-4.3,0-8-1.5-11.1-4.6c-3.1-3.1-4.6-6.8-4.6-11.1c0-4.3,1.5-8,4.6-11.1c3.1-3.1,6.8-4.6,11.1-4.6
		c4.3,0,8,1.6,11,4.6c3.1,3.1,4.6,6.8,4.6,11.1C-221,401-222.6,404.7-225.6,407.8L-225.6,407.8z M-209.4,409.5l-9.2-4.8
		c1.1-2.6,1.7-5.3,1.7-8.1c0-2.7-0.5-5.3-1.6-7.8l9.2-4.8c1.8,4.1,2.7,8.3,2.7,12.7C-206.6,401.2-207.5,405.5-209.4,409.5
		L-209.4,409.5z"/>
</g>
</svg>
