<?xml version="1.0" encoding="utf-8"?>
<!-- Generator: Adobe Illustrator 19.0.0, SVG Export Plug-In . SVG Version: 6.00 Build 0)  -->
<svg version="1.1" id="Layer_1" xmlns="http://www.w3.org/2000/svg" xmlns:xlink="http://www.w3.org/1999/xlink" x="0px" y="0px"
	 viewBox="0 0 51.2 51.2" style="enable-background:new 0 0 51.2 51.2;" xml:space="preserve">
<style type="text/css">
	.st0{fill:#BBBBBB;}
</style>
<g>
	<path class="st0" d="M25.6,51.2c6.8,0,13.3-2.7,18.1-7.5c4.8-4.8,7.5-11.3,7.5-18.1c0-6.8-2.7-13.3-7.5-18.1
		C38.9,2.7,32.4,0,25.6,0C18.8,0,12.3,2.7,7.5,7.5C2.7,12.3,0,18.8,0,25.6c0,6.8,2.7,13.3,7.5,18.1C12.3,48.5,18.8,51.2,25.6,51.2
		L25.6,51.2z M8.6,8.6c4.5-4.5,10.6-7,17-7c6.4,0,12.4,2.5,17,7c4.5,4.5,7,10.6,7,17c0,6.4-2.5,12.4-7,17c-4.5,4.5-10.6,7-17,7
		c-6.4,0-12.4-2.5-17-7c-4.5-4.5-7-10.6-7-17C1.6,19.2,4.1,13.2,8.6,8.6L8.6,8.6z M8.6,8.6"/>
	<rect x="24.8" y="20" class="st0" width="1.6" height="17.6"/>
	<rect x="24.8" y="13.6" class="st0" width="1.6" height="3.2"/>
</g>
</svg>
