<?xml version="1.0" encoding="utf-8"?>
<!-- Generator: Adobe Illustrator 19.2.1, SVG Export Plug-In . SVG Version: 6.00 Build 0)  -->
<svg version="1.1" id="Layer_1" xmlns="http://www.w3.org/2000/svg" xmlns:xlink="http://www.w3.org/1999/xlink" x="0px" y="0px"
	 viewBox="0 0 99.8 99.9" style="enable-background:new 0 0 99.8 99.9;" xml:space="preserve">
<style type="text/css">
	.st0{fill:#FFFFFF;}
</style>
<g>
	<g>
		<path class="st0" d="M90.9,22.2l-7,9.8c1.1,2.1,2,4.2,2.7,6.5L85,39c-2.2,0.7-3.5,3-3.1,5.3v0.1c0.4,2.3,2.4,4,4.7,3.9l1.7-0.1
			c0.1,2.1,0,4.2-0.2,6.4c-0.5,3.5-1.4,7-2.7,10.1l-1.5-0.6c-2.2-0.9-4.6-0.1-5.8,1.9c-0.1,0.1-0.1,0.2-0.2,0.2
			c-1.2,2-0.6,4.6,1.2,5.9l1.4,1c-3.4,4.5-7.8,8.2-12.9,10.7l-0.8-1.5c-1-2.1-3.5-3-5.8-2.2H61c-2.2,0.8-3.5,3-3,5.4l0.4,1.7
			c-4.2,1-8.6,1.2-13.1,0.6c-1.2-0.2-2.4-0.4-3.6-0.6l0.3-1.5c0.5-2.2-0.7-4.5-2.8-5.3c-0.1,0-0.2-0.1-0.2-0.1
			c-2.2-0.9-4.7,0-5.8,2.1l-0.8,1.4c-5-2.6-9.4-6.3-12.7-10.7l1.4-1c1.8-1.4,2.3-4,1.2-5.9C22,66.1,22,66.1,21.9,66
			c-1.1-2-3.6-2.8-5.8-1.9l-1.5,0.6c-2.2-5.1-3.2-10.7-3-16.5l1.8,0.1c2.3,0.1,4.4-1.5,4.7-3.8v-0.1c0.4-2.2-1-4.5-3.2-5.1l-1.8-0.5
			c1.7-5.6,4.6-10.6,8.4-14.7l1.2,1.1c1.7,1.6,4.3,1.6,6.1,0.2c0.1-0.1,0.2-0.2,0.2-0.2c1.8-1.5,2.2-4.1,0.9-6l-0.9-1.4
			c4.6-3,10-5,15.7-5.8l0.2,1.8c0.3,2.3,2.2,4,4.6,4h0.6c2.3,0,4.2-1.7,4.6-4l0.2-1.8c2.3,0.3,4.6,0.9,6.8,1.5l8.4-8.3l0.2-0.2
			l0.1-0.1c-4.5-2.1-9.4-3.4-14.5-4.1c-27.2-3.4-52,15.8-55.4,43c-3.4,27.2,15.8,52,43,55.4c27.2,3.4,52-15.8,55.4-43
			C100.7,43.7,97.5,31.7,90.9,22.2C91,22.1,91,22.1,90.9,22.2L90.9,22.2z M90.9,22.2"/>
	</g>
	<path class="st0" d="M47.9,40.5c-5.2,1.1-8.6,6.4-7.2,11.9c1,4.1,4.8,7,9,7.1H50c5.4,0,9.5-4.3,9.6-9.4l17.6-25l5.9-8.4
		c0.7-1.4,0.6-2.8-0.1-3.8c-0.5-0.7-1.1-1.3-1.9-1.6c-0.5-0.2-1-0.3-1.4-0.3c-0.9,0-1.8,0.3-2.6,1l-6.9,6.7L47.9,40.5z M47.9,40.5"
		/>
</g>
</svg>
