<?xml version="1.0" encoding="utf-8"?>
<!-- Generator: Adobe Illustrator 19.0.0, SVG Export Plug-In . SVG Version: 6.00 Build 0)  -->
<svg version="1.1" id="Layer_1" xmlns="http://www.w3.org/2000/svg" xmlns:xlink="http://www.w3.org/1999/xlink" x="0px" y="0px"
	 viewBox="0 0 214.8 168.8" style="enable-background:new 0 0 214.8 168.8;" xml:space="preserve">
<style type="text/css">
	.st0{fill:#04B74F;}
</style>
<g>
	<path class="st0" d="M20.6,52c2.7,1.9,10.9,7.6,24.6,17.1C58.9,78.6,69.3,85.9,76.6,91c0.8,0.6,2.5,1.8,5.1,3.7
		c2.6,1.9,4.8,3.4,6.5,4.6c1.7,1.2,3.8,2.5,6.2,3.9c2.4,1.4,4.7,2.5,6.9,3.2c2.2,0.7,4.2,1.1,6,1.1h0.2c1.8,0,3.8-0.4,6-1.1
		c2.2-0.7,4.5-1.8,6.9-3.2c2.4-1.4,4.5-2.7,6.2-3.9c1.7-1.2,3.9-2.7,6.5-4.6c2.6-1.9,4.3-3.1,5.1-3.7c7.3-5.1,26-18.1,56.1-39
		c5.8-4.1,10.7-9,14.6-14.7c3.9-5.8,5.9-11.8,5.9-18.1c0-5.3-1.9-9.8-5.7-13.5c-3.8-3.8-8.3-5.6-13.5-5.6H19.2C13,0,8.3,2.1,5,6.2
		c-3.3,4.2-5,9.3-5,15.6c0,5,2.2,10.5,6.6,16.4C11,44.1,15.7,48.7,20.6,52L20.6,52z M20.6,52"/>
	<path class="st0" d="M202.8,64.8c-26.2,17.7-46.1,31.5-59.7,41.3c-4.6,3.4-8.3,6-11.1,7.9c-2.8,1.9-6.6,3.8-11.3,5.8
		c-4.7,2-9.1,2.9-13.2,2.9h-0.2c-4.1,0-8.5-1-13.2-2.9c-4.7-2-8.5-3.9-11.3-5.8c-2.8-1.9-6.5-4.5-11.1-7.9
		C60.9,98.3,41,84.5,12.1,64.8c-4.6-3-8.6-6.5-12.1-10.4v95.2c0,5.3,1.9,9.8,5.6,13.5c3.8,3.8,8.3,5.6,13.6,5.6h176.4
		c5.3,0,9.8-1.9,13.5-5.6c3.8-3.8,5.6-8.3,5.6-13.5V54.4C211.4,58.3,207.4,61.7,202.8,64.8L202.8,64.8z M202.8,64.8"/>
</g>
</svg>
