<?xml version="1.0" encoding="utf-8"?>
<!-- Generator: Adobe Illustrator 19.2.1, SVG Export Plug-In . SVG Version: 6.00 Build 0)  -->
<svg version="1.1" id="Layer_1" xmlns="http://www.w3.org/2000/svg" xmlns:xlink="http://www.w3.org/1999/xlink" x="0px" y="0px"
	 viewBox="0 0 391.3 391.4" style="enable-background:new 0 0 391.3 391.4;" xml:space="preserve">
<style type="text/css">
	.st0{fill:#9B9B9B;}
</style>
<path class="st0" d="M309.1,0h-227C36.8,0,0,36.9,0,82.2v227c0,45.4,36.9,82.2,82.2,82.2h227c45.4,0,82.2-36.9,82.2-82.2V271v-8.4
	V128.3v-20.8V82.2C391.3,36.9,354.4,0,309.1,0z M363.8,128.3v134.2l0,0v46.6c0,30.2-24.6,54.8-54.7,54.8h-227
	c-30.2,0-54.7-24.6-54.7-54.8v-227c0-30.2,24.6-54.8,54.7-54.8h227c30.2,0,54.7,24.6,54.7,54.8v25.3V128.3z"/>
<g>
	<path class="st0" d="M142.3,179c-9.2,3.1-17.4,6.4-24.6,10.1c1.4-10.4,2.1-18.9,2.4-25.9H105c0.1,4.7,0.7,13.4,2,26
		c-5-2.9-13.1-6.2-24.1-10.1l-4.8,14.8c8,2.1,16.6,4.1,25.6,5.9c-3.4,3.1-9.2,9.6-17.2,19.6l12.3,8.9c3.8-5.1,8.5-12.6,13.6-22.4
		c5.5,9.4,10.3,16.9,14.2,22.4l12.5-8.9c-7.7-9.4-13.7-16-18-19.7c8.5-1,17.1-2.9,26-5.9L142.3,179z"/>
	<path class="st0" d="M225.3,179c-9.2,3.1-17.4,6.4-24.6,10.1c1.4-10.4,2.1-18.9,2.4-25.9H188c0.1,4.7,0.8,13.4,2,26
		c-5-2.9-13.1-6.2-24.1-10.1l-4.8,14.8c8,2.1,16.6,4.1,25.6,5.9c-3.4,3.1-9.2,9.6-17.2,19.6l12.3,8.9c3.8-5.1,8.5-12.6,13.6-22.4
		c5.5,9.4,10.3,16.9,14.2,22.4l12.5-8.9c-7.7-9.4-13.7-16-18-19.7c8.5-1,17.1-2.9,26-5.9L225.3,179z"/>
	<path class="st0" d="M287.2,199.7c8.5-1,17.1-2.9,26-5.9l-4.8-14.8c-9.2,3.1-17.4,6.4-24.6,10.1c1.4-10.4,2.1-18.9,2.4-25.9H271
		c0.1,4.7,0.7,13.4,2,26c-5-2.9-13.1-6.2-24.1-10.1l-4.8,14.8c8,2.1,16.6,4.1,25.6,5.9c-3.4,3.1-9.1,9.6-17.2,19.6l12.3,8.9
		c3.9-5.1,8.5-12.6,13.6-22.4c5.5,9.4,10.3,16.9,14.2,22.4l12.5-8.9C297.4,210,291.5,203.3,287.2,199.7z"/>
</g>
</svg>
