<?xml version="1.0" encoding="utf-8"?>
<!-- Generator: Adobe Illustrator 19.0.0, SVG Export Plug-In . SVG Version: 6.00 Build 0)  -->
<svg version="1.1" id="Layer_1" xmlns="http://www.w3.org/2000/svg" xmlns:xlink="http://www.w3.org/1999/xlink" x="0px" y="0px"
	 viewBox="-291.9 382.9 26.1 29.1" style="enable-background:new -291.9 382.9 26.1 29.1;" xml:space="preserve">
<style type="text/css">
	.st0{fill:#939393;}
</style>
<g>
	<g>
		<path class="st0" d="M-267.3,412h-23.1c-0.8,0-1.5-0.7-1.5-1.5v-26.1c0-0.8,0.6-1.5,1.5-1.5h23.1c0.8,0,1.5,0.7,1.5,1.5v26.1
			C-265.8,411.3-266.5,412-267.3,412z M-290.4,383.9c-0.3,0-0.5,0.2-0.5,0.5v26.1c0,0.3,0.2,0.5,0.5,0.5h23.1c0.3,0,0.5-0.2,0.5-0.5
			v-26.1c0-0.3-0.2-0.5-0.5-0.5H-290.4z"/>
	</g>
	<g>
		<g>
			<path class="st0" d="M-285.2,389.5h6.5c3.8,0,6.1,2.2,6.1,5.5c0,3.7-2.9,5.6-6.4,5.6h-2.7v4.8h-3.5V389.5z M-278.9,397.5
				c1.7,0,2.8-1,2.8-2.4c0-1.6-1.1-2.4-2.8-2.4h-2.7v4.9h2.7V397.5z"/>
		</g>
	</g>
</g>
</svg>
