<?xml version="1.0" encoding="utf-8"?>
<!-- Generator: Adobe Illustrator 19.0.0, SVG Export Plug-In . SVG Version: 6.00 Build 0)  -->
<svg version="1.1" id="Layer_1" xmlns="http://www.w3.org/2000/svg" xmlns:xlink="http://www.w3.org/1999/xlink" x="0px" y="0px"
	 viewBox="0 0 75.6 69.1" style="enable-background:new 0 0 75.6 69.1;" xml:space="preserve">
<style type="text/css">
	.st0{fill:#04B74F;}
</style>
<g>
	<path class="st0" d="M74,2.2H21.5c-0.9,0-1.6,0.7-1.6,1.6v8.6c0,0.9,0.7,1.6,1.6,1.6H74c0.9,0,1.6-0.7,1.6-1.6V3.8
		C75.6,2.9,74.9,2.2,74,2.2L74,2.2z M74,2.2"/>
	<path class="st0" d="M74,29.1H21.5c-0.9,0-1.6,0.7-1.6,1.6v8.6c0,0.9,0.7,1.6,1.6,1.6H74c0.9,0,1.6-0.7,1.6-1.6v-8.6
		C75.6,29.8,74.9,29.1,74,29.1L74,29.1z M74,29.1"/>
	<g>
		<path class="st0" d="M74,56.8H21.5c-0.9,0-1.6,0.7-1.6,1.6V67c0,0.9,0.7,1.6,1.6,1.6H74c0.9,0,1.6-0.7,1.6-1.6v-8.6
			C75.6,57.6,74.9,56.8,74,56.8L74,56.8z M74,56.8"/>
		<path class="st0" d="M1.5,5.6c0.3,0,0.7-0.1,0.9-0.3l0.7-0.6v10.4c0,0.7,0.5,1.2,1.2,1.2h1.2c0.7,0,1.2-0.5,1.2-1.2V1.2
			C6.8,0.5,6.2,0,5.6,0H4.3C4,0,3.7,0.1,3.5,0.3L0.4,2.9C-0.1,3.3-0.1,4,0.2,4.5l0.4,0.6C0.8,5.4,1.1,5.6,1.5,5.6L1.5,5.6z M1.5,5.6
			"/>
	</g>
	<path class="st0" d="M2,26.7c-0.5,0.2-0.8,0.7-0.8,1.2l0.1,0.8c0,0.4,0.3,0.8,0.6,0.9c0.3,0.2,0.8,0.2,1.1,0
		c0.9-0.5,1.5-0.6,2.3-0.4c0.6,0.1,0.9,0.5,1.1,1c0.3,0.9,0.3,2.4-2.3,5.5l-2,2.4c-0.5,0.5-0.8,0.9-1,1.1c-0.2,0.2-0.4,0.5-0.4,0.9
		v1.2c0,0.7,0.5,1.2,1.2,1.2h7.3c0.7,0,1.2-0.5,1.2-1.2v-0.6c0-0.7-0.5-1.2-1.2-1.2H5.5c0.4-0.4,0.8-1,1.4-1.7
		c2.2-2.8,4-5.3,3.4-8.3c-0.2-1.3-1-2.4-2.2-3c-0.7-0.3-1.5-0.5-2.5-0.5C4.5,26.1,3.2,26.3,2,26.7L2,26.7z M2,26.7"/>
	<path class="st0" d="M8.4,60.4C8.6,60.3,8.8,60.1,9,60c1.4-1.1,1.4-2.7,1.4-3.1c0-1.5-0.6-2.7-1.7-3.5c-0.8-0.6-2-0.9-3.5-0.9
		c-1.1,0-2.2,0.2-3.2,0.5c-0.5,0.2-0.9,0.7-0.8,1.2l0,0.7c0,0.4,0.2,0.7,0.5,0.9C2,55.9,2.4,56,2.7,55.9c0.7-0.3,1.3-0.4,1.8-0.4
		c0.2,0,0.4,0,0.6,0.1c0.8,0.1,1.2,0.4,1.5,1c0.2,0.4,0.2,1.2-0.1,1.5c-0.5,0.8-1.9,1-2.8,1c-0.6,0-1.2,0.6-1.2,1.2v0.5
		c0,0.7,0.5,1.2,1.2,1.2c1.3,0,1.8,0.2,2.1,0.4c0.6,0.4,0.9,0.8,0.9,1.5c0,0.7-0.3,1.3-0.9,1.7c-0.8,0.5-2.1,0.5-3.6,0
		c-0.4-0.1-0.7-0.1-1,0.1c-0.3,0.2-0.5,0.5-0.5,0.9l-0.1,0.7c0,0.5,0.3,1,0.8,1.2c0.3,0.1,0.4,0.1,0.8,0.2c0.7,0.2,1.5,0.2,2.3,0.2
		c1.2,0,3.4-0.2,4.8-1.5c1.3-1.4,1.6-3.3,1.2-4.6C10.1,61.3,9.2,60.7,8.4,60.4L8.4,60.4z M8.4,60.4"/>
</g>
</svg>
