<?xml version="1.0" encoding="utf-8"?>
<!-- Generator: Adobe Illustrator 19.2.1, SVG Export Plug-In . SVG Version: 6.00 Build 0)  -->
<svg version="1.1" id="Layer_1" xmlns="http://www.w3.org/2000/svg" xmlns:xlink="http://www.w3.org/1999/xlink" x="0px" y="0px"
	 viewBox="0 0 391.3 391.4" style="enable-background:new 0 0 391.3 391.4;" xml:space="preserve">
<style type="text/css">
	.st0{fill:#9B9B9B;}
</style>
<path class="st0" d="M309.1,0h-227C36.8,0,0,36.9,0,82.2v227c0,45.4,36.9,82.2,82.2,82.2h227c45.4,0,82.2-36.9,82.2-82.2V271v-8.4
	V128.3v-20.8V82.2C391.3,36.9,354.4,0,309.1,0z M363.8,128.3v134.2l0,0v46.6c0,30.2-24.6,54.8-54.7,54.8h-227
	c-30.2,0-54.7-24.6-54.7-54.8v-227c0-30.2,24.6-54.8,54.7-54.8h227c30.2,0,54.7,24.6,54.7,54.8v25.3V128.3z"/>
<path class="st0" d="M291.3,154.7c-5.5-27.8-25.3-45.8-50.8-45.8c-14.2,0-29.7,5.9-44.7,16.9c-15.3-11.4-30.7-17.3-45.1-17.3
	c-25.5,0-45.4,18.1-50.8,46.2c-8,41.7,17.8,97.2,93.3,127.4c0.8,0.3,1.7,0.5,2.5,0.5c0.8,0,1.7-0.2,2.5-0.5
	C273.7,251.4,299.4,196.1,291.3,154.7z"/>
</svg>
