<?xml version="1.0" encoding="utf-8"?>
<!-- Generator: Adobe Illustrator 19.0.0, SVG Export Plug-In . SVG Version: 6.00 Build 0)  -->
<svg version="1.1" id="Layer_1" xmlns="http://www.w3.org/2000/svg" xmlns:xlink="http://www.w3.org/1999/xlink" x="0px" y="0px"
	 viewBox="0 0 80 64" style="enable-background:new 0 0 80 64;" xml:space="preserve">
<style type="text/css">
	.st0{fill:#CECECE;}
</style>
<g>
	<path class="st0" d="M40,24c-6.6,0-12,5.4-12,12c0,6.6,5.4,12,12,12c6.6,0,12-5.4,12-12C52,29.4,46.6,24,40,24L40,24z M72,12h-9.6
		c-1.3,0-2.7-1-3.2-2.3l-2.5-7.4C56.3,1,54.9,0,53.6,0H26.4c-1.3,0-2.7,1-3.2,2.3l-2.5,7.4C20.3,11,18.9,12,17.6,12H8
		c-4.4,0-8,3.6-8,8v36c0,4.4,3.6,8,8,8h64c4.4,0,8-3.6,8-8V20C80,15.6,76.4,12,72,12L72,12z M40,56c-11,0-20-9-20-20
		c0-11,9-20,20-20c11,0,20,9,20,20C60,47,51,56,40,56L40,56z M69.2,25.6c-1.5,0-2.8-1.3-2.8-2.8c0-1.5,1.3-2.8,2.8-2.8
		c1.5,0,2.8,1.3,2.8,2.8C72,24.3,70.7,25.6,69.2,25.6L69.2,25.6z M69.2,25.6"/>
</g>
</svg>
