<?xml version="1.0" encoding="utf-8"?>
<!-- Generator: Adobe Illustrator 19.2.1, SVG Export Plug-In . SVG Version: 6.00 Build 0)  -->
<svg version="1.1" id="Layer_1" xmlns="http://www.w3.org/2000/svg" xmlns:xlink="http://www.w3.org/1999/xlink" x="0px" y="0px"
	 viewBox="0 0 399.3 391.4" style="enable-background:new 0 0 399.3 391.4;" xml:space="preserve">
<style type="text/css">
	.st0{fill:#9E9E9E;}
</style>
<g>
	<path class="st0" d="M0,195.8c0,7.6,6.2,13.8,13.8,13.8h262.1l-51.1,51c-5.4,5.4-5.4,14.1,0,19.4c2.6,2.6,6.2,4,9.7,4
		c3.5,0,7-1.4,9.7-4l74.5-74.5c5.4-5.4,5.4-14.1,0-19.4l-74.5-74.5c-5.4-5.4-14.1-5.4-19.4,0c-5.4,5.4-5.4,14.1,0,19.4l51,51H13.8
		C6.2,182.1,0,188.2,0,195.8L0,195.8z M0,195.8"/>
	<path class="st0" d="M317.1,391.4c45.4,0,82.2-36.9,82.2-82.2v-227c0-45.4-36.9-82.2-82.2-82.2h-227C44.8,0,8,36.9,8,82.2v46.6
		c0,7.6,6.2,13.7,13.7,13.7c7.6,0,13.8-6.2,13.8-13.7V82.2c0-30.2,24.6-54.8,54.7-54.8h227c30.2,0,54.7,24.6,54.7,54.8v227
		c0,30.2-24.6,54.8-54.7,54.8h-227c-30.2,0-54.7-24.6-54.7-54.8v-46.1c0-7.6-6.2-13.8-13.8-13.8c-7.6,0-13.7,6.2-13.7,13.8v46.1
		c0,45.4,36.9,82.2,82.2,82.2H317.1z M317.1,391.4"/>
</g>
</svg>
