<?xml version="1.0" encoding="utf-8"?>
<!-- Generator: Adobe Illustrator 19.0.0, SVG Export Plug-In . SVG Version: 6.00 Build 0)  -->
<svg version="1.1" id="Layer_1" xmlns="http://www.w3.org/2000/svg" xmlns:xlink="http://www.w3.org/1999/xlink" x="0px" y="0px"
	 viewBox="-283 374 43.1 46" style="enable-background:new -283 374 43.1 46;" xml:space="preserve">
<style type="text/css">
	.st0{fill:#4A4A4A;}
	.st1{fill:#04B74F;}
</style>
<g>
	<path class="st0" d="M-261.4,383.6c-0.4,0-0.8,0.4-0.8,0.8s0.4,0.8,0.8,0.8h14.4c0.4,0,0.8-0.4,0.8-0.8s-0.4-0.8-0.8-0.8H-261.4z"
		/>
	<path class="st0" d="M-246.2,395.6c0-0.4-0.4-0.8-0.8-0.8h-14.4c-0.4,0-0.8,0.4-0.8,0.8s0.4,0.8,0.8,0.8h14.4
		C-246.6,396.4-246.2,396-246.2,395.6L-246.2,395.6z"/>
	<path class="st0" d="M-266.5,379.8c-0.3-0.3-0.8-0.3-1.1,0.1l-5,5.8l-3.1-2.3c-0.4-0.2-0.9-0.2-1.1,0.2c-0.3,0.3-0.2,0.8,0.1,1.1
		l3.7,2.7c0.1,0.1,0.3,0.2,0.5,0.2s0.4-0.1,0.6-0.3l5.5-6.4C-266.2,380.6-266.2,380.1-266.5,379.8L-266.5,379.8z"/>
	<path class="st0" d="M-266.5,391c-0.3-0.3-0.8-0.2-1.1,0.1l-5,5.8l-3.1-2.3c-0.4-0.3-0.9-0.2-1.1,0.2c-0.3,0.4-0.2,0.9,0.2,1.1
		l3.7,2.7c0.1,0.1,0.3,0.2,0.5,0.2c0.2,0,0.4-0.1,0.6-0.3l5.5-6.4C-266.2,391.8-266.2,391.3-266.5,391L-266.5,391z"/>
	<path class="st0" d="M-267.7,403.1l-5,5.8l-3.1-2.3c-0.4-0.3-0.9-0.2-1.1,0.2c-0.3,0.4-0.2,0.9,0.2,1.1l3.7,2.7
		c0.1,0.1,0.3,0.2,0.5,0.2s0.4-0.1,0.6-0.3l5.5-6.4c0.3-0.3,0.3-0.8-0.1-1.1C-266.9,402.7-267.4,402.7-267.7,403.1L-267.7,403.1z"/>
	<path class="st0" d="M-263,415.6h-10.3c-4.5,0-8.1-3.7-8.1-8.1v-23.8c0-4.5,3.7-8.1,8.1-8.1h23.7c4.5,0,8.1,3.6,8.1,8.1V398
		c0,0.4,0.4,0.8,0.8,0.8c0.4,0,0.8-0.4,0.8-0.8v-14.3c0-5.4-4.4-9.7-9.7-9.7h-23.7c-5.3,0-9.7,4.4-9.7,9.7v23.7
		c0,5.4,4.4,9.7,9.7,9.7h10.3c0.4,0,0.8-0.4,0.8-0.8C-262.2,416-262.6,415.6-263,415.6L-263,415.6z"/>
</g>
<path class="st1" d="M-243.4,416l-3.7-1.8c-0.5-0.2-0.8-0.7-0.8-1.3v-1.4c0.1-0.1,0.2-0.3,0.3-0.4c0.5-0.7,0.9-1.5,1.1-2.3
	c0.5-0.1,0.8-0.6,0.8-1.1v-1.5c0-0.3-0.2-0.6-0.4-0.9V403c0,0,0.5-3.5-4.2-3.5s-4.1,3.5-4.1,3.5v2.2c-0.2,0.2-0.4,0.5-0.4,0.9v1.5
	c0,0.4,0.2,0.8,0.5,1c0.4,1.7,1.4,2.9,1.4,2.9v1.4c0,0.5-0.3,1-0.7,1.2l-3.4,1.9c-1,0.5-1.6,1.6-1.6,2.7v1.3h16.9v-1.2
	C-241.7,417.6-242.3,416.6-243.4,416L-243.4,416z"/>
</svg>
