<?xml version="1.0" encoding="utf-8"?>
<!-- Generator: Adobe Illustrator 19.0.0, SVG Export Plug-In . SVG Version: 6.00 Build 0)  -->
<svg version="1.1" id="Layer_1" xmlns="http://www.w3.org/2000/svg" xmlns:xlink="http://www.w3.org/1999/xlink" x="0px" y="0px"
	 viewBox="0 0 191.2 191.2" style="enable-background:new 0 0 191.2 191.2;" xml:space="preserve">
<style type="text/css">
	.st0{fill:#9E9E9E;}
</style>
<path class="st0" d="M95.6,191.2c52.7,0,95.6-42.9,95.6-95.6C191.2,42.9,148.3,0,95.6,0S0,42.9,0,95.6
	C0,148.3,42.9,191.2,95.6,191.2L95.6,191.2z M95.6,12c46.1,0,83.6,37.5,83.6,83.6c0,46.1-37.5,83.6-83.6,83.6
	c-46.1,0-83.6-37.5-83.6-83.6C12,49.5,49.5,12,95.6,12L95.6,12z M95.6,12"/>
<path class="st0" d="M63.2,118c0-3.3-2.7-6-6-6c-3.3,0-6,2.7-6,6c0,11.6,10.4,21.4,25.6,25.8v3c0,3.3,2.7,6,6,6c3.3,0,6-2.7,6-6
	v-0.7c2.2,0.2,4.5,0.3,6.8,0.3c2.3,0,4.6-0.1,6.8-0.3v0.7c0,3.3,2.7,6,6,6c3.3,0,6-2.7,6-6v-3c15.2-4.5,25.6-14.2,25.6-25.8
	c0-11.6-10.4-21.4-25.6-25.8V60c8.5,3.2,13.6,8.4,13.6,13.2c0,3.3,2.7,6,6,6c3.3,0,6-2.7,6-6c0-11.6-10.4-21.4-25.6-25.8v-3
	c0-3.3-2.7-6-6-6c-3.3,0-6,2.7-6,6v0.7c-2.2-0.2-4.5-0.3-6.8-0.3c-2.3,0-4.6,0.1-6.8,0.3v-0.7c0-3.3-2.7-6-6-6c-3.3,0-6,2.7-6,6v3
	c-15.2,4.4-25.6,14.2-25.6,25.8c0,11.6,10.4,21.4,25.6,25.8v32.2C68.3,128,63.2,122.8,63.2,118L63.2,118z M114.4,104.8
	c8.5,3.2,13.6,8.4,13.6,13.2c0,4.8-5.1,10-13.6,13.2V104.8z M88.8,57.2c2.2-0.2,4.4-0.4,6.8-0.4s4.6,0.1,6.8,0.4v32.7
	c-2.2-0.2-4.5-0.3-6.8-0.3c-2.4,0-4.6-0.1-6.8-0.4V57.2z M88.8,101.3c2.2,0.2,4.5,0.3,6.8,0.3c2.4,0,4.6,0.1,6.8,0.4v32
	c-2.2,0.2-4.4,0.4-6.8,0.4s-4.6-0.1-6.8-0.4V101.3z M63.2,73.2c0-4.8,5.1-10,13.6-13.2v26.4C68.3,83.2,63.2,78,63.2,73.2L63.2,73.2z
	 M63.2,73.2"/>
</svg>
