<?xml version="1.0" encoding="utf-8"?>
<!-- Generator: Adobe Illustrator 19.0.0, SVG Export Plug-In . SVG Version: 6.00 Build 0)  -->
<svg version="1.1" id="Layer_1" xmlns="http://www.w3.org/2000/svg" xmlns:xlink="http://www.w3.org/1999/xlink" x="0px" y="0px"
	 viewBox="-109 201.6 391.3 391.4" style="enable-background:new -109 201.6 391.3 391.4;" xml:space="preserve">
<style type="text/css">
	.st0{fill:#FFFFFF;}
</style>
<path class="st0" d="M200.1,201.6h-227c-45.3,0-82.1,36.9-82.1,82.2v227c0,45.4,36.9,82.2,82.2,82.2h227c45.4,0,82.2-36.9,82.2-82.2
	v-38.2v-8.4V329.9v-20.8v-25.3C282.3,238.5,245.4,201.6,200.1,201.6z M254.8,329.9v134.2l0,0v46.6c0,30.2-24.6,54.8-54.7,54.8h-227
	c-30.2,0-54.7-24.6-54.7-54.8v-227c0-30.2,24.6-54.8,54.7-54.8h227c30.2,0,54.7,24.6,54.7,54.8V309V329.9z"/>
<path class="st0" d="M164.1,328.6L57.8,434.9L9.2,386.3c-5.7-5.7-15-5.7-20.8,0c-5.7,5.7-5.7,15,0,20.8l59,59
	c2.9,2.9,6.6,4.3,10.4,4.3c3.8,0,7.5-1.4,10.4-4.3L185,349.3c5.7-5.7,5.7-15,0-20.8C179.2,322.8,169.9,322.8,164.1,328.6
	L164.1,328.6z"/>
</svg>
