<?xml version="1.0" encoding="utf-8"?>
<!-- Generator: Adobe Illustrator 19.0.0, SVG Export Plug-In . SVG Version: 6.00 Build 0)  -->
<svg version="1.1" id="Layer_1" xmlns="http://www.w3.org/2000/svg" xmlns:xlink="http://www.w3.org/1999/xlink" x="0px" y="0px"
	 viewBox="0 0 204.3 200.1" style="enable-background:new 0 0 204.3 200.1;" xml:space="preserve">
<style type="text/css">
	.st0{fill:#04B74F;}
</style>
<g>
	<path class="st0" d="M177.2,75.5l-1-0.3l-3.8-9.1l0.4-0.9c11.5-26.1,10.7-26.9,8.8-28.7l-15.3-15c-0.6-0.6-1.7-1.1-2.7-1.1
		c-0.9,0-3.5,0-26.1,10.3l-0.9,0.4l-9.4-3.8l-0.4-0.9C116.3,0,115.2,0,112.5,0H90.9C88.2,0,87,0,77.1,26.4l-0.4,1l-9.3,3.8l-0.9-0.4
		c-15.3-6.5-24.3-9.7-26.6-9.7c-0.9,0-2.1,0.4-2.7,1l-15.4,15c-1.9,1.9-2.8,2.7,9.4,28.3l0.5,0.9l-3.8,9.1L27,75.7
		C0,86.1,0,87.2,0,89.9v21.2c0,2.7,0,3.8,27.1,13.6l1,0.3l3.8,9l-0.4,0.9c-11.5,26.1-10.8,26.8-8.8,28.7l15.3,15
		c0.6,0.6,1.7,1.1,2.7,1.1c0.9,0,3.5,0,26.1-10.2l0.9-0.4l9.4,3.8l0.4,0.9c10.7,26.4,11.8,26.4,14.4,26.4h21.7
		c2.7,0,3.8,0,13.7-26.4l0.4-1l9.3-3.8l0.9,0.4c15.3,6.5,24.3,9.8,26.6,9.8c0.9,0,2-0.4,2.7-1l15.4-15c1.9-1.9,2.7-2.7-9.4-28.2
		l-0.4-0.9l3.8-9l0.9-0.3c27-10.5,27-11.5,27-14.2V89C204.3,86.3,204.3,85.2,177.2,75.5L177.2,75.5z M102.1,134.5
		C82.8,134.5,67,119,67,100.1c0-19,15.7-34.4,35.1-34.4c19.4,0,35.1,15.4,35.1,34.4C137.2,119,121.5,134.5,102.1,134.5L102.1,134.5z
		 M102.1,134.5"/>
</g>
</svg>
