<?xml version="1.0" encoding="utf-8"?>
<!-- Generator: Adobe Illustrator 19.0.0, SVG Export Plug-In . SVG Version: 6.00 Build 0)  -->
<svg version="1.1" id="Layer_1" xmlns="http://www.w3.org/2000/svg" xmlns:xlink="http://www.w3.org/1999/xlink" x="0px" y="0px"
	 viewBox="0 0 240 240" style="enable-background:new 0 0 240 240;" xml:space="preserve">
<style type="text/css">
	.st0{fill:#FFFFFF;}
	.st1{fill:#04B74F;}
</style>
<g>
	<path class="st0" d="M135.6,170.8h-31.2c0,8.6,7,15.6,15.6,15.6C128.6,186.4,135.6,179.4,135.6,170.8z"/>
	<path class="st0" d="M166.8,144.7l-3.3-28.6c0-20.9-14.8-38.4-34.5-42.5V62.5c0-4.9-4-8.9-8.9-8.9c-4.9,0-8.9,4-8.9,8.9v11.1
		c-19.7,4.1-34.5,21.6-34.5,42.5l-3.3,28.6c-3.5,1.7-5.9,5.2-5.9,9.4v1c0,5.8,4.7,6.1,10.4,6.1h84.5c5.8,0,10.4-0.4,10.4-6.1h0v-1
		C172.7,150,170.3,146.4,166.8,144.7z"/>
	<path class="st1" d="M120,0C53.7,0,0,53.7,0,120c0,66.3,53.7,120,120,120c66.3,0,120-53.7,120-120C240,53.7,186.3,0,120,0z
		 M104.4,170.8h31.2c0,8.6-7,15.6-15.6,15.6C111.4,186.4,104.4,179.4,104.4,170.8z M172.7,155.1L172.7,155.1c0,5.8-4.7,6.1-10.4,6.1
		H77.7c-5.8,0-10.4-0.4-10.4-6.1v-1c0-4.1,2.4-7.7,5.9-9.4l3.3-28.6c0-20.9,14.8-38.4,34.5-42.5V62.5c0-4.9,4-8.9,8.9-8.9
		c4.9,0,8.9,4,8.9,8.9v11.1c19.7,4.1,34.5,21.6,34.5,42.5l3.3,28.6c3.5,1.7,5.9,5.2,5.9,9.4V155.1z"/>
</g>
</svg>
