<?xml version="1.0" encoding="utf-8"?>
<!-- Generator: Adobe Illustrator 19.2.1, SVG Export Plug-In . SVG Version: 6.00 Build 0)  -->
<svg version="1.1" id="Layer_1" xmlns="http://www.w3.org/2000/svg" xmlns:xlink="http://www.w3.org/1999/xlink" x="0px" y="0px"
	 viewBox="0 0 391.3 391.4" style="enable-background:new 0 0 391.3 391.4;" xml:space="preserve">
<style type="text/css">
	.st0{fill:#9B9B9B;}
</style>
<path class="st0" d="M309.1,0h-227C36.8,0,0,36.9,0,82.2v227c0,45.4,36.9,82.2,82.2,82.2h227c45.4,0,82.2-36.9,82.2-82.2V271v-8.4
	V128.3v-20.8V82.2C391.3,36.9,354.4,0,309.1,0z M363.8,128.3v134.2l0,0v46.6c0,30.2-24.6,54.8-54.7,54.8h-227
	c-30.2,0-54.7-24.6-54.7-54.8v-227c0-30.2,24.6-54.8,54.7-54.8h227c30.2,0,54.7,24.6,54.7,54.8v25.3V128.3z"/>
<path class="st0" d="M273.1,127L166.8,233.3l-48.6-48.6c-5.7-5.7-15-5.7-20.8,0c-5.7,5.7-5.7,15,0,20.8l59,59
	c2.9,2.9,6.6,4.3,10.4,4.3c3.8,0,7.5-1.4,10.4-4.3l116.8-116.8c5.7-5.7,5.7-15,0-20.8C288.2,121.2,278.9,121.2,273.1,127L273.1,127z
	 M273.1,127"/>
</svg>
