<?xml version="1.0" encoding="utf-8"?>
<!-- Generator: Adobe Illustrator 19.0.0, SVG Export Plug-In . SVG Version: 6.00 Build 0)  -->
<svg version="1.1" id="Layer_1" xmlns="http://www.w3.org/2000/svg" xmlns:xlink="http://www.w3.org/1999/xlink" x="0px" y="0px"
	 viewBox="0 0 16 16" style="enable-background:new 0 0 16 16;" xml:space="preserve">
<style type="text/css">
	.st0{fill:#CECECE;}
</style>
<g>
	<path class="st0" d="M8,0C3.6,0,0,3.6,0,8c0,4.4,3.6,8,8,8c4.4,0,8-3.6,8-8C16,3.6,12.4,0,8,0L8,0z M10.8,4.8C11.4,4.8,12,5.4,12,6
		c0,0.6-0.6,1.2-1.2,1.2c-0.6,0-1.2-0.6-1.2-1.2C9.6,5.4,10.2,4.8,10.8,4.8L10.8,4.8z M5.2,4.8c0.6,0,1.2,0.6,1.2,1.2
		c0,0.6-0.6,1.2-1.2,1.2C4.6,7.2,4,6.6,4,6C4,5.4,4.6,4.8,5.2,4.8L5.2,4.8z M8,12.8c-2.1,0-3.8-1.4-4.5-3.2h9
		C11.8,11.4,10.1,12.8,8,12.8L8,12.8z M8,12.8"/>
</g>
</svg>
