<?xml version="1.0" encoding="utf-8"?>
<!-- Generator: Adobe Illustrator 19.2.1, SVG Export Plug-In . SVG Version: 6.00 Build 0)  -->
<svg version="1.1" id="icons" xmlns="http://www.w3.org/2000/svg" xmlns:xlink="http://www.w3.org/1999/xlink" x="0px" y="0px"
	 viewBox="0 0 31.9 56" style="enable-background:new 0 0 31.9 56;" xml:space="preserve">
<style type="text/css">
	.st0{fill:#939393;}
</style>
<g>
	<g>
		<path class="st0" d="M25.2,11c-0.1-0.6-0.6-1-1.2-1h-6.5c-0.3,0-0.5-0.2-0.5-0.5V1c0-0.6-0.4-1-1-1c-0.6,0-1,0.4-1,1v8.5
			c0,0.3-0.2,0.5-0.5,0.5H8c-0.6,0-1.1,0.4-1.2,1l-1.6,8c-0.1,0.5,0.3,1,0.8,1h20c0.5,0,0.9-0.5,0.8-1L25.2,11z M7.9,18
			c-0.3,0-0.5-0.2-0.4-0.5l1-5C8.6,12.2,8.8,12,9.1,12h13.7c0.3,0,0.5,0.2,0.6,0.5l1,5c0.1,0.3-0.1,0.5-0.4,0.5H7.9z"/>
	</g>
	<g>
		<path class="st0" d="M14.9,31c0,0.6,0.4,1,1,1c0.6,0,1-0.4,1-1v-6c0-0.6-0.4-1-1-1c-0.6,0-1,0.4-1,1V31z"/>
	</g>
	<g>
		<path class="st0" d="M14.9,43c0,0.6,0.4,1,1,1c0.6,0,1-0.4,1-1v-6c0-0.6-0.4-1-1-1c-0.6,0-1,0.4-1,1V43z"/>
	</g>
	<g>
		<path class="st0" d="M14.9,55c0,0.6,0.4,1,1,1c0.6,0,1-0.4,1-1v-6c0-0.6-0.4-1-1-1c-0.6,0-1,0.4-1,1V55z"/>
	</g>
	<g>
		<path class="st0" d="M26.8,25c-0.1-0.5-0.6-0.9-1.2-0.8c-0.5,0.1-0.9,0.6-0.8,1.2l1,5.9c0.1,0.5,0.6,0.9,1.2,0.8
			c0.5-0.1,0.9-0.6,0.8-1.2L26.8,25z"/>
	</g>
	<g>
		<path class="st0" d="M28.8,36.9c-0.1-0.5-0.6-0.9-1.2-0.8c-0.5,0.1-0.9,0.6-0.8,1.2l1,5.9c0.1,0.5,0.6,0.9,1.2,0.8
			c0.5-0.1,0.9-0.6,0.8-1.2L28.8,36.9z"/>
	</g>
	<g>
		<path class="st0" d="M30.8,48.7c-0.1-0.5-0.6-0.9-1.2-0.8c-0.5,0.1-0.9,0.6-0.8,1.2l1,5.9c0.1,0.5,0.6,0.9,1.2,0.8
			c0.5-0.1,0.9-0.6,0.8-1.2L30.8,48.7z"/>
	</g>
	<g>
		<path class="st0" d="M4.1,31C4,31.5,4.4,32,4.9,32.1c0.5,0.1,1.1-0.3,1.2-0.8l1-5.9c0.1-0.5-0.3-1.1-0.8-1.2
			c-0.5-0.1-1.1,0.3-1.2,0.8L4.1,31z"/>
	</g>
	<g>
		<path class="st0" d="M2.1,42.8c-0.1,0.5,0.3,1.1,0.8,1.2C3.5,44,4,43.7,4.1,43.1l1-5.9c0.1-0.5-0.3-1.1-0.8-1.2
			c-0.5-0.1-1.1,0.3-1.2,0.8L2.1,42.8z"/>
	</g>
	<g>
		<path class="st0" d="M0.1,54.6C0,55.2,0.4,55.7,1,55.8S2,55.5,2.1,55l1-5.9c0.1-0.5-0.3-1.1-0.8-1.2c-0.5-0.1-1.1,0.3-1.2,0.8
			L0.1,54.6z"/>
	</g>
</g>
</svg>
