<?xml version="1.0" encoding="utf-8"?>
<!-- Generator: Adobe Illustrator 19.0.0, SVG Export Plug-In . SVG Version: 6.00 Build 0)  -->
<svg version="1.1" id="Layer_1" xmlns="http://www.w3.org/2000/svg" xmlns:xlink="http://www.w3.org/1999/xlink" x="0px" y="0px"
	 viewBox="-105 201.6 399.3 391.4" style="enable-background:new -105 201.6 399.3 391.4;" xml:space="preserve">
<style type="text/css">
	.st0{fill:#FFFFFF;}
</style>
<g>
	<path class="st0" d="M-105,397.4c0,7.6,6.2,13.8,13.8,13.8h262.1l-51.1,51c-5.4,5.4-5.4,14.1,0,19.4c2.6,2.6,6.2,4,9.7,4
		s7-1.4,9.7-4l74.5-74.5c5.4-5.4,5.4-14.1,0-19.4l-74.5-74.5c-5.4-5.4-14.1-5.4-19.4,0c-5.4,5.4-5.4,14.1,0,19.4l51,51h-262
		C-98.8,383.7-105,389.8-105,397.4L-105,397.4z"/>
	<path class="st0" d="M212.1,593c45.4,0,82.2-36.9,82.2-82.2v-227c0-45.4-36.9-82.2-82.2-82.2h-227c-45.3,0-82.1,36.9-82.1,82.2
		v46.6c0,7.6,6.2,13.7,13.7,13.7c7.6,0,13.8-6.2,13.8-13.7v-46.6c0-30.2,24.6-54.8,54.7-54.8h227c30.2,0,54.7,24.6,54.7,54.8v227
		c0,30.2-24.6,54.8-54.7,54.8h-227c-30.2,0-54.7-24.6-54.7-54.8v-46.1c0-7.6-6.2-13.8-13.8-13.8S-97,457.1-97,464.7v46.1
		c0,45.4,36.9,82.2,82.2,82.2H212.1L212.1,593z"/>
</g>
</svg>
