<?xml version="1.0" encoding="utf-8"?>
<!-- Generator: Adobe Illustrator 19.0.0, SVG Export Plug-In . SVG Version: 6.00 Build 0)  -->
<svg version="1.1" id="Layer_1" xmlns="http://www.w3.org/2000/svg" xmlns:xlink="http://www.w3.org/1999/xlink" x="0px" y="0px"
	 viewBox="-283 374.3 43.1 44.7" style="enable-background:new -283 374.3 43.1 44.7;" xml:space="preserve">
<style type="text/css">
	.st0{fill:#4A4A4A;}
	.st1{fill:#04B74F;}
</style>
<path class="st0" d="M-263,415.9h-10.3c-4.5,0-8.1-3.7-8.1-8.1V384c0-4.5,3.7-8.1,8.1-8.1h23.7c4.5,0,8.1,3.6,8.1,8.1v14.3
	c0,0.4,0.4,0.8,0.8,0.8c0.4,0,0.8-0.4,0.8-0.8V384c0-5.4-4.4-9.7-9.7-9.7h-23.7c-5.3,0-9.7,4.4-9.7,9.7v23.7c0,5.4,4.4,9.7,9.7,9.7
	h10.3c0.4,0,0.8-0.4,0.8-0.8C-262.2,416.3-262.6,415.9-263,415.9L-263,415.9z"/>
<g>
	<path class="st1" d="M-239.9,417.3c0,0.3-0.1,0.6-0.2,0.8l-4.4-4.8l4.3-3.8c0.2,0.3,0.3,0.6,0.3,0.9V417.3z M-246.8,414.2l6-5.2
		c-0.2-0.1-0.5-0.2-0.8-0.2H-252c-0.3,0-0.6,0.1-0.8,0.2L-246.8,414.2z M-245.1,413.8l-1.4,1.2c-0.1,0.1-0.2,0.1-0.3,0.1
		c-0.1,0-0.2,0-0.3-0.1l-1.4-1.2l-4.4,4.9c0.3,0.2,0.6,0.3,0.9,0.3h10.3c0.3,0,0.6-0.1,0.9-0.3L-245.1,413.8z M-253.4,409.5
		c-0.2,0.3-0.3,0.6-0.3,0.9v6.9c0,0.3,0.1,0.6,0.2,0.8l4.4-4.9L-253.4,409.5z"/>
</g>
<g>
	<path class="st0" d="M-248.4,397.2l-13-10.1l-13,10.1v-4.1l13-10.1l13,10.1V397.2z M-251.6,396.9v9.7h-6.5v-6.5h-6.5v6.5h-6.4v-9.7
		l9.7-7.3L-251.6,396.9z"/>
</g>
</svg>
