<?xml version="1.0" encoding="utf-8"?>
<!-- Generator: Adobe Illustrator 19.0.0, SVG Export Plug-In . SVG Version: 6.00 Build 0)  -->
<svg version="1.1" id="Layer_1" xmlns="http://www.w3.org/2000/svg" xmlns:xlink="http://www.w3.org/1999/xlink" x="0px" y="0px"
	 viewBox="0 0 391.3 391.4" style="enable-background:new 0 0 391.3 391.4;" xml:space="preserve">
<style type="text/css">
	.st0{fill:#FFFFFF;}
</style>
<path class="st0" d="M309.1,0h-227C36.8,0,0,36.9,0,82.2v227c0,45.4,36.9,82.2,82.2,82.2h227c45.4,0,82.2-36.9,82.2-82.2V271v-8.4
	V128.3v-20.8V82.2C391.3,36.9,354.4,0,309.1,0z M363.8,128.3v134.2l0,0v46.6c0,30.2-24.6,54.8-54.7,54.8h-227
	c-30.2,0-54.7-24.6-54.7-54.8v-227c0-30.2,24.6-54.8,54.7-54.8h227c30.2,0,54.7,24.6,54.7,54.8v25.3V128.3z"/>
<path class="st0" d="M297.7,262.2c-28.1-23-58.3-38.4-64.5-41.4c-0.7-0.3-1.1-1-1.1-1.8v-21.4c3.3-5.7,5.4-11.7,6.2-17.1
	c2.4-0.2,5.5-3.5,9-15.5c4.3-15.4,0.3-18.5-3.7-18.5c0.4-1.3,0.7-2.6,1-3.9c7-42.4-13.8-43.9-13.8-43.9s-3.4-6.6-12.6-11.7
	c-6.1-3.6-14.6-6.4-25.8-5.4c-3.6,0.2-7,0.9-10.3,2c-4.2,1.4-7.9,3.4-11.4,5.8c-4.2,2.6-8.2,5.9-11.7,9.6
	c-5.5,5.7-10.5,13-12.6,22.1c-1.8,6.8-1.4,13.9,0.1,21.6c0.2,1.3,0.6,2.6,1,3.9c-3.9,0.1-7.8,3.3-3.5,18.5c3.4,12,6.6,15.4,9,15.5
	c0.9,5.4,3,11.4,6.2,17.1v21.4c0.1,0.7-0.4,1.4-1,1.8c-6.2,3-36.2,18.2-64.2,41.2c-5.1,4.2-8.1,10.4-8.1,17v19.8
	c0,6.2,5,11.1,11.1,11.1h197.6c6.2,0,11.1-5,11.1-11.1v-19.8C305.6,272.6,302.7,266.4,297.7,262.2L297.7,262.2z M297.7,262.2"/>
</svg>
