<?xml version="1.0" encoding="utf-8"?>
<!-- Generator: Adobe Illustrator 19.0.0, SVG Export Plug-In . SVG Version: 6.00 Build 0)  -->
<svg version="1.1" id="Layer_1" xmlns="http://www.w3.org/2000/svg" xmlns:xlink="http://www.w3.org/1999/xlink" x="0px" y="0px"
	 viewBox="-266 357.8 78.2 78.2" style="enable-background:new -266 357.8 78.2 78.2;" xml:space="preserve">
<style type="text/css">
	.st0{fill:#F40505;}
</style>
<g>
	<path class="st0" d="M-234,405.5c5.9-3,11.7-6.1,17.6-9.1c-5.9-3.1-11.7-6.1-17.6-9.2C-234,387.2-234,405.5-234,405.5z"/>
	<path class="st0" d="M-226.9,357.8c-21.6,0-39.1,17.5-39.1,39.1s17.5,39.1,39.1,39.1s39.1-17.5,39.1-39.1S-205.3,357.8-226.9,357.8
		L-226.9,357.8z M-200.3,410c-0.7,2.9-3.1,5.1-6,5.4c-6.8,0.8-13.8,0.8-20.7,0.8c-6.9,0-13.8,0-20.7-0.8c-2.9-0.3-5.3-2.5-6-5.4
		c-1-4.2-1-8.7-1-13.1c0-4.3,0-8.9,1-13.1c0.7-2.9,3.1-5.1,6-5.4c6.8-0.8,13.8-0.8,20.7-0.8c6.9,0,13.8,0,20.7,0.8
		c2.9,0.3,5.3,2.5,6,5.4c1,4.2,1,8.8,1,13.1C-199.3,401.2-199.3,405.8-200.3,410L-200.3,410z"/>
</g>
</svg>
