<?xml version="1.0" encoding="utf-8"?>
<!-- Generator: Adobe Illustrator 19.0.0, SVG Export Plug-In . SVG Version: 6.00 Build 0)  -->
<svg version="1.1" id="Layer_1" xmlns="http://www.w3.org/2000/svg" xmlns:xlink="http://www.w3.org/1999/xlink" x="0px" y="0px"
	 viewBox="-133 294.4 344 204.6" style="enable-background:new -133 294.4 344 204.6;" xml:space="preserve">
<style type="text/css">
	.st0{fill:#FFFFFF;}
</style>
<g>
	<g>
		<path class="st0" d="M211,389.7c-8.8-15-60.9-95.3-172-95.3s-163.2,80.3-172,95.3c33.5-32.6,89.4-68.9,172-68.9
			S177.5,357.1,211,389.7L211,389.7z"/>
		<path class="st0" d="M-133,403.8c8.8,15,60.9,95.3,172,95.3s163.2-80.3,172-95.3c-33.5,32.6-89.4,68.9-172,68.9
			S-99.5,436.3-133,403.8L-133,403.8z"/>
	</g>
	<path class="st0" d="M-1.7,435.5c22,22,57.6,22,79.5,0c22-22,22-57.6,0-79.5c-17.7-17.7-44.2-21.1-65.3-10.3l12.9,37.4L-12,370.2
		C-22.9,391.3-19.4,417.8-1.7,435.5L-1.7,435.5z"/>
</g>
</svg>
