<?xml version="1.0" encoding="utf-8"?>
<!-- Generator: Adobe Illustrator 19.0.0, SVG Export Plug-In . SVG Version: 6.00 Build 0)  -->
<svg version="1.1" id="Layer_1" xmlns="http://www.w3.org/2000/svg" xmlns:xlink="http://www.w3.org/1999/xlink" x="0px" y="0px"
	 viewBox="0 0 22.4 25.6" style="enable-background:new 0 0 22.4 25.6;" xml:space="preserve">
<style type="text/css">
	.st0{fill-rule:evenodd;clip-rule:evenodd;fill:#9B9B9B;}
</style>
<g>
	<path class="st0" d="M22.4,5.5c-0.1-1.3-1.1-2.3-2.4-2.3h-2.4V2.4c0-1.3-1.1-2.4-2.4-2.4h-8C5.9,0,4.8,1.1,4.8,2.4v0.8H2.4
		c-1.3,0-2.3,1-2.4,2.3h0v1.7c0,0.9,0.7,1.6,1.6,1.6v13.6c0,1.8,1.4,3.2,3.2,3.2h12.8c1.8,0,3.2-1.4,3.2-3.2V8.8
		c0.9,0,1.6-0.7,1.6-1.6L22.4,5.5L22.4,5.5z M6.4,2.4c0-0.4,0.4-0.8,0.8-0.8h8C15.6,1.6,16,2,16,2.4v0.8H6.4V2.4z M19.2,22.4
		c0,0.9-0.7,1.6-1.6,1.6H4.8c-0.9,0-1.6-0.7-1.6-1.6V8.8h16V22.4z M20.8,6.4v0.8H1.6V5.6c0-0.4,0.4-0.8,0.8-0.8H20
		c0.4,0,0.8,0.4,0.8,0.8V6.4z M20.8,6.4"/>
	<path class="st0" d="M5.6,22.4h1.6C7.6,22.4,8,22,8,21.6V11.2c0-0.4-0.4-0.8-0.8-0.8H5.6c-0.4,0-0.8,0.4-0.8,0.8v10.4
		C4.8,22,5.2,22.4,5.6,22.4L5.6,22.4z M5.6,11.2h1.6v10.4H5.6V11.2z M5.6,11.2"/>
	<path class="st0" d="M10.4,22.4H12c0.4,0,0.8-0.4,0.8-0.8V11.2c0-0.4-0.4-0.8-0.8-0.8h-1.6c-0.4,0-0.8,0.4-0.8,0.8v10.4
		C9.6,22,10,22.4,10.4,22.4L10.4,22.4z M10.4,11.2H12v10.4h-1.6V11.2z M10.4,11.2"/>
	<path class="st0" d="M15.2,22.4h1.6c0.4,0,0.8-0.4,0.8-0.8V11.2c0-0.4-0.4-0.8-0.8-0.8h-1.6c-0.4,0-0.8,0.4-0.8,0.8v10.4
		C14.4,22,14.8,22.4,15.2,22.4L15.2,22.4z M15.2,11.2h1.6v10.4h-1.6V11.2z M15.2,11.2"/>
</g>
</svg>
