<?xml version="1.0" encoding="utf-8"?>
<!-- Generator: Adobe Illustrator 19.0.0, SVG Export Plug-In . SVG Version: 6.00 Build 0)  -->
<svg version="1.1" id="Layer_1" xmlns="http://www.w3.org/2000/svg" xmlns:xlink="http://www.w3.org/1999/xlink" x="0px" y="0px"
	 viewBox="-294 384.4 22.4 25.6" style="enable-background:new -294 384.4 22.4 25.6;" xml:space="preserve">
<style type="text/css">
	.st0{fill:#04B74F;}
</style>
<g>
	<path class="st0" d="M-271.6,389.9c-0.1-1.3-1.1-2.3-2.4-2.3h-2.4v-0.8c0-1.3-1.1-2.4-2.4-2.4h-8c-1.3,0-2.4,1.1-2.4,2.4v0.8h-2.4
		c-1.3,0-2.3,1-2.4,2.3l0,0v1.7c0,0.9,0.7,1.6,1.6,1.6v13.6c0,1.8,1.4,3.2,3.2,3.2h12.8c1.8,0,3.2-1.4,3.2-3.2v-13.6
		c0.9,0,1.6-0.7,1.6-1.6V389.9L-271.6,389.9z M-287.6,386.8c0-0.4,0.4-0.8,0.8-0.8h8c0.4,0,0.8,0.4,0.8,0.8v0.8h-9.6V386.8z
		 M-274.8,406.8c0,0.9-0.7,1.6-1.6,1.6h-12.8c-0.9,0-1.6-0.7-1.6-1.6v-13.6h16V406.8z M-273.2,390.8v0.8h-19.2V390
		c0-0.4,0.4-0.8,0.8-0.8h17.6c0.4,0,0.8,0.4,0.8,0.8V390.8z"/>
	<path class="st0" d="M-288.4,406.8h1.6c0.4,0,0.8-0.4,0.8-0.8v-10.4c0-0.4-0.4-0.8-0.8-0.8h-1.6c-0.4,0-0.8,0.4-0.8,0.8V406
		C-289.2,406.4-288.8,406.8-288.4,406.8L-288.4,406.8z M-288.4,395.6h1.6V406h-1.6V395.6z"/>
	<path class="st0" d="M-283.6,406.8h1.6c0.4,0,0.8-0.4,0.8-0.8v-10.4c0-0.4-0.4-0.8-0.8-0.8h-1.6c-0.4,0-0.8,0.4-0.8,0.8V406
		C-284.4,406.4-284,406.8-283.6,406.8L-283.6,406.8z M-283.6,395.6h1.6V406h-1.6V395.6z"/>
	<path class="st0" d="M-278.8,406.8h1.6c0.4,0,0.8-0.4,0.8-0.8v-10.4c0-0.4-0.4-0.8-0.8-0.8h-1.6c-0.4,0-0.8,0.4-0.8,0.8V406
		C-279.6,406.4-279.2,406.8-278.8,406.8L-278.8,406.8z M-278.8,395.6h1.6V406h-1.6C-278.8,406-278.8,395.6-278.8,395.6z"/>
</g>
</svg>
