<?xml version="1.0" encoding="utf-8"?>
<!-- Generator: Adobe Illustrator 19.0.0, SVG Export Plug-In . SVG Version: 6.00 Build 0)  -->
<svg version="1.1" id="Layer_1" xmlns="http://www.w3.org/2000/svg" xmlns:xlink="http://www.w3.org/1999/xlink" x="0px" y="0px"
	 viewBox="-266.8 358.2 75.3 77.3" style="enable-background:new -266.8 358.2 75.3 77.3;" xml:space="preserve">
<style type="text/css">
	.st0{fill:#A62518;}
</style>
<g>
	<path class="st0" d="M-217.7,358.2h-18.5c-8.2,0-13.9,1.8-19.1,6c-4,3.5-6.4,8.5-6.4,13.5c0,7.7,5.9,15.9,16.7,15.9
		c1,0,2.2-0.1,3.2-0.2l-0.1,0.4c-0.4,1-0.9,2-0.9,3.6c0,3,1.4,4.9,2.8,6.6l0.2,0.2h-0.3c-4.4,0.3-12.8,0.9-18.9,4.6
		c-7.2,4.3-7.8,10.5-7.8,12.3c0,7.2,6.7,14.4,21.7,14.4c17.4,0,26.5-9.6,26.5-19.1c0-7-4.1-10.5-8.5-14.2l-3.7-2.9
		c-1.1-0.9-2.6-2.1-2.6-4.3c0-2.1,1.4-3.5,2.7-4.8l0.1-0.1c4-3.1,8.5-6.7,8.5-14.4s-4.8-11.7-7.2-13.6h6.3c0.1,0,0.1,0,0.2-0.1
		l5.3-3.3c0.1-0.1,0.2-0.3,0.2-0.5C-217.4,358.3-217.5,358.2-217.7,358.2L-217.7,358.2z M-240.1,431.4c-10.6,0-17.7-5-17.7-12.3
		c0-4.8,2.9-8.3,8.7-10.4c4.6-1.5,10.5-1.6,10.6-1.6c1,0,1.5,0,2.3,0.1c7.4,5.3,11,8.1,11,13.3C-225.3,427.2-231,431.4-240.1,431.4
		L-240.1,431.4z M-240.2,390.8c-8.9,0-12.6-11.7-12.6-18c0-3.2,0.7-5.6,2.2-7.5c1.6-2,4.4-3.3,7.1-3.3c8.2,0,12.7,11,12.7,18.6
		c0,1.2,0,4.8-2.5,7.4C-235.1,389.6-237.8,390.8-240.2,390.8L-240.2,390.8z"/>
	<path class="st0" d="M-191.8,394.3h-9.7v-9.7c0-0.2-0.2-0.4-0.4-0.4h-4.2c-0.2,0-0.4,0.2-0.4,0.4v9.7h-9.7c-0.2,0-0.4,0.2-0.4,0.4
		v4.2c0,0.2,0.2,0.4,0.4,0.4h9.7v9.8c0,0.2,0.2,0.4,0.4,0.4h4.1c0.2,0,0.4-0.2,0.4-0.4v-9.8h9.7c0.2,0,0.4-0.2,0.4-0.4v-4.2
		C-191.4,394.5-191.6,394.3-191.8,394.3L-191.8,394.3z"/>
</g>
</svg>
