<?xml version="1.0" encoding="utf-8"?>
<!-- Generator: Adobe Illustrator 19.0.0, SVG Export Plug-In . SVG Version: 6.00 Build 0)  -->
<svg version="1.1" id="Layer_1" xmlns="http://www.w3.org/2000/svg" xmlns:xlink="http://www.w3.org/1999/xlink" x="0px" y="0px"
	 viewBox="0 0 50.4 39.2" style="enable-background:new 0 0 50.4 39.2;" xml:space="preserve">
<style type="text/css">
	.st0{fill:#DFDFDF;}
</style>
<g>
	<path class="st0" d="M47.2,0h-44C1.4,0,0,1.4,0,3.2V36c0,1.8,1.4,3.2,3.2,3.2h44c1.8,0,3.2-1.4,3.2-3.2V3.2C50.4,1.4,49,0,47.2,0
		L47.2,0z M47.2,3.2v23.3l-6.3-5.7c-1-0.9-2.4-0.8-3.3,0.1l-6.4,6.4l-12.6-15c-0.9-1.1-2.7-1.1-3.7,0L3.2,25.8V3.2H47.2z M33.6,11.6
		c0-2.4,2-4.4,4.4-4.4s4.4,2,4.4,4.4c0,2.4-2,4.4-4.4,4.4S33.6,14,33.6,11.6L33.6,11.6z M33.6,11.6"/>
</g>
</svg>
