<?xml version="1.0" encoding="utf-8"?>
<!-- Generator: Adobe Illustrator 19.0.0, SVG Export Plug-In . SVG Version: 6.00 Build 0)  -->
<svg version="1.1" id="Layer_1" xmlns="http://www.w3.org/2000/svg" xmlns:xlink="http://www.w3.org/1999/xlink" x="0px" y="0px"
	 viewBox="-283 375.8 44.6 43.1" style="enable-background:new -283 375.8 44.6 43.1;" xml:space="preserve">
<style type="text/css">
	.st0{fill:#4A4A4A;}
	.st1{fill:#04B74F;}
</style>
<g>
	<path class="st0" d="M-261.4,385.4c-0.4,0-0.8,0.4-0.8,0.8s0.4,0.8,0.8,0.8h14.4c0.4,0,0.8-0.4,0.8-0.8s-0.4-0.8-0.8-0.8H-261.4z"
		/>
	<path class="st0" d="M-246.2,397.4c0-0.4-0.4-0.8-0.8-0.8h-14.4c-0.4,0-0.8,0.4-0.8,0.8s0.4,0.8,0.8,0.8h14.4
		C-246.6,398.2-246.2,397.8-246.2,397.4L-246.2,397.4z"/>
	<path class="st0" d="M-263,417.4h-10.3c-4.5,0-8.1-3.7-8.1-8.1v-23.8c0-4.5,3.7-8.1,8.1-8.1h23.7c4.5,0,8.1,3.6,8.1,8.1v14.3
		c0,0.4,0.4,0.8,0.8,0.8c0.4,0,0.8-0.4,0.8-0.8v-14.3c0-5.4-4.4-9.7-9.7-9.7h-23.7c-5.3,0-9.7,4.4-9.7,9.7v23.7
		c0,5.4,4.4,9.7,9.7,9.7h10.3c0.4,0,0.8-0.4,0.8-0.8C-262.2,417.8-262.6,417.4-263,417.4L-263,417.4z"/>
</g>
<g>
	<path class="st0" d="M-267.2,409.3l-4.5-3.5l-4.5,3.5v-1.4l4.5-3.5l4.5,3.5V409.3z M-268.3,409.2v3.4h-2.3v-2.3h-2.3v2.3h-2.2v-3.4
		l3.4-2.5L-268.3,409.2z"/>
</g>
<g>
	<g>
		<path class="st1" d="M-249.2,404.9c-4,0-7.7,2.2-10.4,5.8c-0.2,0.3-0.2,0.7,0,1c2.7,3.6,6.4,5.8,10.4,5.8s7.7-2.2,10.4-5.8
			c0.2-0.3,0.2-0.7,0-1C-241.5,407.1-245.2,404.9-249.2,404.9L-249.2,404.9z M-249,415.7c-2.7,0.2-4.9-2-4.7-4.7
			c0.1-2.2,1.9-4,4.2-4.2c2.7-0.2,4.9,2,4.7,4.7C-244.9,413.7-246.7,415.5-249,415.7L-249,415.7z M-249.1,413.6
			c-1.4,0.1-2.6-1.1-2.5-2.5c0.1-1.2,1-2.2,2.2-2.2c1.4-0.1,2.6,1.1,2.5,2.5C-246.9,412.6-247.9,413.5-249.1,413.6L-249.1,413.6z"/>
	</g>
</g>
<g>
	<path class="st0" d="M-267.2,397.3l-4.5-3.5l-4.5,3.5v-1.4l4.5-3.5l4.5,3.5V397.3z M-268.3,397.2v3.4h-2.3v-2.3h-2.3v2.3h-2.2v-3.4
		l3.4-2.5L-268.3,397.2z"/>
</g>
<g>
	<path class="st0" d="M-267.2,385.9l-4.5-3.5l-4.5,3.5v-1.4l4.5-3.5l4.5,3.5V385.9z M-268.3,385.8v3.4h-2.3v-2.3h-2.3v2.3h-2.2v-3.4
		l3.4-2.5L-268.3,385.8z"/>
</g>
</svg>
