<?xml version="1.0" encoding="utf-8"?>
<!-- Generator: Adobe Illustrator 19.0.0, SVG Export Plug-In . SVG Version: 6.00 Build 0)  -->
<svg version="1.1" id="Layer_1" xmlns="http://www.w3.org/2000/svg" xmlns:xlink="http://www.w3.org/1999/xlink" x="0px" y="0px"
	 viewBox="-23 323.1 561.5 147.2" style="enable-background:new -23 323.1 561.5 147.2;" xml:space="preserve">
<style type="text/css">
	.st0{fill:none;}
	.st1{fill:#4B4B4B;}
	.st2{fill:#04B74F;}
</style>
<g>
	<path class="st0" d="M538.5,416c0,18.3,0,36.6,0,55c-187.5,0-374.9,0-562.5,0c0-49.5,0-99,0-148.6c187.4,0,374.9,0,562.5,0
		c0,28.5,0,57,0,85.6c-0.2-1-0.6-2.1-0.7-3.1c-2-16-11.5-26.1-27.5-28.8c-18.7-3.2-35.5,5.6-41.6,22c-6.9,18.5,0.8,39.6,17.5,46.7
		c14.3,6.1,28.4,4.8,41.8-2.9c2-1.1,3.7-2.8,4.8-3.7c-3.4-3.8-6.4-7.4-9.5-10.9c-1.3,0.8-2.3,1.5-3.3,2c-8.2,4.2-16.7,5.2-25.4,2.2
		c-6.6-2.3-10.3-7.3-10.4-13.6c1.5,0,2.9,0,4.4,0c15.2,0,30.4,0,45.6-0.1C535.6,417.8,537,416.7,538.5,416z M97.4,469.9
		c-0.1-0.5-0.1-1-0.3-1.5C88,449,78.9,429.6,70,410.1c-0.8-1.7-0.6-4.5,0.3-6.1c4.6-7.7,7.1-16.1,7.2-24.9
		c0.2-16.1-5.6-29.8-17.5-41c-11-10.3-23.8-15-38.7-14.9c-13.3,0-26.7,0-40,0c-1.4,0-2.9,0-4.4,0c0.1,47,0.1,93.6,0.1,140.2
		c12.4,0,24.6,0,36.9,0c0-16.8-0.1-33.2,0.1-49.6c0.1-6.2-2.8-10.6-7.9-13.3C-7,393.6-12,377.9-4.8,364.7
		c4.5-8.1,11.6-11.8,20.4-12.4c9.9-0.7,17.7,3.5,22.8,11.9c6.3,10.5,4.4,22.4-3.7,31.5c-3.2,3.6-4.9,8-2.7,12.8
		c5.7,12.4,11,24.9,17.6,36.8C59.9,463.8,76,472.3,97.4,469.9z M125,348.3c0,33,0,65.6,0,98.1c6.1,0,11.8,0,17.9,0
		c0-11,0-21.8,0-32.8c5.1,0,9.8,0.2,14.5-0.1c2.7-0.1,4.5,0.7,6.2,2.8c7.3,8.6,15.1,16.8,22.1,25.7c3.1,3.9,6.3,5.1,10.9,4.8
		c4.9-0.3,9.7-0.1,15.7-0.1c-10.8-12.2-20.6-23.4-30-34c5.4-3.1,10.9-5.1,14.9-8.7c9.9-9,11.3-20.9,7.7-33.1
		c-3.8-12.9-13.4-20.1-26.4-21.8c-8.5-1.1-17.2-0.7-25.8-0.7C143.6,348.3,134.5,348.3,125,348.3z M398.2,437.6
		c2.2,2.1,3.9,4,5.9,5.4c11,8.1,30,6.4,40.8-3.4c9.8-8.9,12-20.3,11.1-32.7c-1.5-21.4-22.1-36-42.6-29.6c-5.4,1.7-10.2,5.1-15.6,7.9
		c0-11.8,0-24,0-36.2c-5.7,0-10.9,0-16.1,0c0,32.7,0,65,0,97.5c5.2,0,10.1,0,15.1,0C397.3,443.5,397.7,440.8,398.2,437.6z
		 M286.3,417.8c2.9-18.2-4.2-38.9-27.7-41.8c-15.1-1.9-28.9,1.3-37.5,15c-8.6,13.7-8.4,28.3,0.1,42c11.6,18.7,44.6,20.9,60.9,4.6
		c-3.3-3.5-6.6-6.9-10-10.4c-1,0.6-2,1.3-3.1,1.9c-8.2,4.6-16.9,5.3-25.7,2.4c-6.5-2.2-10.6-7.9-10.1-13.7
		C250.9,417.8,268.7,417.8,286.3,417.8z M332.9,376.3c-20.7,0-35.5,14.8-35.6,35.7c-0.1,21.2,14.6,36.1,35.5,36.2
		c21.1,0.1,36.1-14.9,36.1-36.1C368.9,391.2,353.9,376.3,332.9,376.3z"/>
	<path class="st1" d="M538.5,416c-1.4,0.6-2.9,1.8-4.3,1.8c-15.2,0.1-30.4,0.1-45.6,0.1c-1.5,0-2.9,0-4.4,0
		c0.1,6.4,3.8,11.3,10.4,13.6c8.7,3,17.2,2.1,25.4-2.2c1.1-0.6,2-1.3,3.3-2c3.1,3.5,6.2,7,9.5,10.9c-1.1,0.8-2.8,2.5-4.8,3.7
		c-13.5,7.7-27.6,8.9-41.8,2.9c-16.7-7.1-24.4-28.2-17.5-46.7c6.1-16.4,22.8-25.2,41.6-22c16,2.7,25.5,12.8,27.5,28.8
		c0.1,1,0.5,2.1,0.7,3.1C538.5,410.7,538.5,413.4,538.5,416z M521.5,404c-0.8-9.1-7.9-14.1-18.9-13.8c-9.7,0.3-17.8,6.4-18,13.8
		C496.9,404,509.1,404,521.5,404z"/>
	<path class="st1" d="M125,348.3c9.5,0,18.7-0.1,27.8,0c8.6,0.1,17.3-0.4,25.8,0.7c13,1.7,22.6,8.9,26.4,21.8
		c3.6,12.2,2.2,24.1-7.7,33.1c-4,3.7-9.5,5.7-14.9,8.7c9.4,10.6,19.3,21.8,30,34c-6,0-10.9-0.3-15.7,0.1c-4.6,0.3-7.9-0.9-10.9-4.8
		c-7-8.8-14.8-17.1-22.1-25.7c-1.7-2-3.6-2.9-6.2-2.8c-4.7,0.2-9.4,0.1-14.5,0.1c0,11,0,21.8,0,32.8c-6.1,0-11.8,0-17.9,0
		C125,413.9,125,381.3,125,348.3z M143.1,396.8c11,0,21.7,0.6,32.4-0.2c8-0.6,12.8-7,13-15c0.2-7.9-4.7-15-12.7-15.6
		c-10.8-0.8-21.6-0.2-32.7-0.2C143.1,376.1,143.1,386.5,143.1,396.8z"/>
	<path class="st1" d="M398.2,437.6c-0.5,3.2-0.9,6-1.4,8.9c-5,0-9.9,0-15.1,0c0-32.4,0-64.8,0-97.5c5.2,0,10.4,0,16.1,0
		c0,12.1,0,24.4,0,36.2c5.3-2.8,10.2-6.2,15.6-7.9c20.5-6.4,41.2,8.1,42.6,29.6c0.9,12.5-1.3,23.8-11.1,32.7
		c-10.8,9.8-29.9,11.5-40.8,3.4C402.1,441.5,400.4,439.6,398.2,437.6z M399.3,412c0,12,8.4,20.5,20.1,20.6
		c11.5,0.1,20.2-8.9,20.1-20.7c0-11.9-8.2-20.3-19.9-20.3C407.9,391.7,399.3,400.2,399.3,412z"/>
	<path class="st1" d="M286.3,417.8c-17.7,0-35.4,0-53.1,0c-0.5,5.8,3.6,11.5,10.1,13.7c8.8,3,17.5,2.2,25.7-2.4c1-0.6,2-1.3,3.1-1.9
		c3.4,3.5,6.7,7,10,10.4c-16.3,16.2-49.3,14-60.9-4.6c-8.5-13.7-8.7-28.4-0.1-42c8.6-13.7,22.4-16.9,37.5-15
		C282.2,379,289.2,399.7,286.3,417.8z M233.1,404c12.6,0,24.9,0,37.2,0c-0.7-8.1-6.1-12.9-15.3-13.7
		C244,389.3,235.5,394.5,233.1,404z"/>
	<path class="st1" d="M332.9,376.3c21,0,36,14.9,36,35.8c0.1,21.2-15,36.2-36.1,36.1c-21-0.1-35.6-15-35.5-36.2
		C297.4,391.2,312.2,376.3,332.9,376.3z M352.2,412.4c0.1-11.6-8.1-20.8-18.8-21c-11.2-0.2-19.4,8.4-19.5,20.6
		c-0.1,12.2,7.9,20.9,19.2,20.9C344.3,432.9,352.1,424.6,352.2,412.4z"/>
	<path class="st0" d="M521.5,404c-12.5,0-24.7,0-36.9,0c0.2-7.4,8.3-13.5,18-13.8C513.7,389.9,520.7,394.9,521.5,404z"/>
	<path class="st0" d="M143.1,396.8c0-10.3,0-20.7,0-31c11,0,21.9-0.6,32.7,0.2c8,0.6,12.9,7.7,12.7,15.6c-0.2,8-5,14.4-13,15
		C164.8,397.4,154.1,396.8,143.1,396.8z"/>
	<path class="st0" d="M399.3,412c0-11.9,8.5-20.4,20.4-20.4c11.7,0,19.9,8.4,19.9,20.3c0,11.9-8.7,20.8-20.1,20.7
		C407.7,432.6,399.3,424,399.3,412z"/>
	<path class="st0" d="M233.1,404c2.3-9.5,10.8-14.7,21.9-13.7c9.2,0.8,14.6,5.6,15.3,13.7C258,404,245.7,404,233.1,404z"/>
	<path class="st0" d="M352.2,412.4c-0.1,12.2-7.9,20.5-19.1,20.5c-11.3,0-19.3-8.7-19.2-20.9c0.1-12.2,8.2-20.9,19.5-20.6
		C344.1,391.6,352.3,400.8,352.2,412.4z"/>
	<path class="st2" d="M97.4,469.9c-21.4,2.5-37.5-6-47.8-24.5c-6.6-12-11.9-24.5-17.6-36.9c-2.2-4.7-0.5-9.2,2.7-12.8
		c8.1-9.1,10-21,3.7-31.5c-5.1-8.4-12.9-12.6-22.8-11.9c-8.8,0.6-15.9,4.3-20.4,12.4c-7.3,13.2-2.3,28.9,10.8,35.8
		c5.2,2.7,8,7.1,7.9,13.3c-0.2,16.4-0.1,32.9-0.1,49.6c-12.3,0-24.5,0-36.9,0c0.1-46.6,0.1-93.2,0.1-140.3c1.5,0,2.9,0,4.4,0
		c13.3,0,26.7,0,40,0c14.8,0,27.7,4.7,38.7,14.9c12,11.2,17.8,24.9,17.5,41c-0.1,8.7-2.7,17.2-7.2,24.9c-0.9,1.6-1.1,4.4-0.3,6.1
		c8.9,19.5,18,38.9,27.1,58.3C97.3,468.8,97.3,469.4,97.4,469.9z"/>
</g>
</svg>
