<?xml version="1.0" encoding="utf-8"?>
<!-- Generator: Adobe Illustrator 20.1.0, SVG Export Plug-In . SVG Version: 6.00 Build 0)  -->
<svg version="1.1" id="Layer_1" xmlns="http://www.w3.org/2000/svg" xmlns:xlink="http://www.w3.org/1999/xlink" x="0px" y="0px"
	 viewBox="0 0 310.5 424.5" style="enable-background:new 0 0 310.5 424.5;" xml:space="preserve">
<style type="text/css">
	.st0{opacity:0.2;}
	.st1{opacity:0.15;}
	.st2{fill:#9B9B9B;}
</style>
<g>
	<g>
		<ellipse class="st0" cx="155" cy="393.8" rx="113.5" ry="30.6"/>
		<ellipse class="st1" cx="155" cy="389.9" rx="73.9" ry="15.6"/>
		<path class="st2" d="M310.5,155.3c0-87.6-72.6-158.2-160.8-155.2C71.9,2.8,8.2,62.7,0.7,140.1c-1.5,15.4-0.6,30.3,2.1,44.6
			c0,0,0.2,1.7,1,4.8c2.4,10.7,5.9,21,10.5,30.8c16.1,38,53.7,102.2,139.3,171.4c1,0.8,2.4,0.8,3.4,0
			c85.7-69.3,123.2-133.4,139.3-171.4c4.5-9.8,8.1-20.1,10.5-30.8c0.7-3.1,1-4.8,1-4.8C309.5,175.3,310.5,165.4,310.5,155.3
			L310.5,155.3z M226.3,219c-2.1-3.9-5.5-7.1-10.9-8.6c-18.6-4.7-33.8-15.4-33.8-15.4l-11.8,37.4l-2.2,7v-0.1l-1.9,6l-6.2-17.7
			c15.4-21.4-3.1-21.2-4.2-21.2c-1,0-19.5-0.2-4.2,21.2l-6.2,17.7l-1.9-6v0.1l-2.2-7L128.8,195c0,0-15.2,10.7-33.8,15.4
			c-5.4,1.4-8.8,4.6-10.9,8.6C69.7,202.4,61,180.8,61,157.1c0-52.1,42.2-94.2,94.2-94.2s94.2,42.2,94.2,94.2
			C249.5,180.8,240.7,202.4,226.3,219L226.3,219z M226.3,219"/>
	</g>
	<path class="st2" d="M189.9,144.7c0.6-1.7,1-3.3,1.4-5c5.2-31.1-10.2-32.2-10.2-32.2s-2.6-4.9-9.2-8.6c-4.5-2.6-10.7-4.7-19-4
		c-2.6,0.2-5.2,0.6-7.5,1.4c-3,1-5.8,2.5-8.3,4.2c-3.1,1.9-6,4.3-8.6,7c-4.1,4.2-7.7,9.5-9.3,16.2c-1.3,5-1,10.2,0.1,15.8
		c0.3,1.6,0.7,3.3,1.4,5c-3-0.3-6.6,1.5-3.3,13.5c2.5,8.8,4.8,11.3,6.6,11.4c1.6,10.5,9.7,23.8,23,28.4c5.4,1.9,11.4,1.9,16.8,0
		c13-4.7,21.4-17.9,23-28.4c1.8-0.2,4.1-2.6,6.6-11.4C196.6,146.1,193,144.3,189.9,144.7L189.9,144.7z M189.9,144.7"/>
</g>
</svg>
